<svg version="1.1" id="Layer_1" xmlns="http://www.w3.org/2000/svg" xmlns:xlink="http://www.w3.org/1999/xlink" x="0px" y="0px"
	 width="100%" viewBox="0 0 500 500" enable-background="new 0 0 500 500" xml:space="preserve">
<path fill="#FEFFFF" opacity="1.000000" stroke="none" 
	d="
M319.000000,501.000000 
	C212.666687,501.000000 106.833382,501.000000 1.000057,501.000000 
	C1.000038,334.333405 1.000038,167.666794 1.000019,1.000146 
	C167.666565,1.000098 334.333130,1.000098 500.999756,1.000049 
	C500.999847,167.666519 500.999847,334.333038 500.999939,500.999786 
	C440.500000,501.000000 380.000000,501.000000 319.000000,501.000000 
M304.992065,193.802841 
	C305.948608,194.376190 306.905151,194.949539 308.168762,195.952530 
	C308.761871,196.310226 309.354980,196.667923 310.321045,197.580902 
	C315.616028,201.326447 320.910980,205.071991 326.205963,208.817535 
	C326.372620,208.554840 326.539307,208.292145 326.705994,208.029434 
	C322.425385,203.533325 318.144806,199.037216 313.646881,194.157532 
	C313.646881,194.157532 313.288940,193.900177 313.374268,193.739334 
	C313.374268,193.739334 313.103302,193.581161 312.826263,193.142792 
	C312.687225,193.040146 312.548157,192.937515 312.185699,192.157654 
	C311.104950,190.161148 310.024170,188.164642 308.856476,185.340897 
	C306.899994,179.994446 307.671631,175.145950 311.758575,171.088989 
	C315.293671,167.579819 319.054626,164.298569 322.603027,160.802216 
	C323.863892,159.559875 324.793060,157.980957 325.873657,156.555679 
	C325.538300,156.143417 325.202972,155.731171 324.867615,155.318924 
	C314.248627,160.874527 302.336975,163.663239 292.953644,171.917145 
	C286.231171,177.830444 279.042084,183.216202 272.013916,188.777573 
	C269.386292,190.856827 266.624847,192.766907 263.924408,194.754120 
	C264.120819,195.111786 264.317200,195.469452 264.513611,195.827118 
	C271.333649,193.770294 278.153687,191.713455 286.349457,189.241714 
	C282.624542,195.477509 280.116577,200.878128 285.537628,205.207764 
	C287.435181,206.723282 291.684845,206.821518 294.114288,205.797287 
	C298.093323,204.119751 298.839355,199.932755 297.719574,195.919281 
	C296.105103,190.132858 291.487793,189.425781 286.170654,189.096481 
	C289.126038,188.366531 292.081451,187.636597 295.438843,187.427872 
	C297.293915,188.586838 299.149017,189.745804 301.245087,191.121902 
	C301.245087,191.121902 301.564911,191.176285 301.911713,191.760101 
	C302.885254,192.258377 303.858765,192.756638 304.881378,193.161560 
	C304.881378,193.161560 304.776276,193.170197 304.992065,193.802841 
M258.658234,324.999756 
	C259.102081,324.970032 259.545898,324.940308 260.514740,325.508667 
	C263.343262,325.081085 266.171753,324.653503 269.738312,324.103912 
	C270.485870,324.104980 271.233429,324.106049 272.195343,324.404388 
	C272.461517,324.270660 272.727661,324.136902 273.740509,323.913147 
	C275.152618,323.606293 276.564758,323.299438 278.660736,323.040161 
	C279.113220,322.983490 279.565674,322.926819 280.786377,322.934204 
	C283.940887,321.615875 287.095367,320.297577 291.000549,318.988342 
	C293.521881,317.984558 296.048737,316.994415 298.563049,315.973206 
	C301.167877,314.915222 303.989624,314.178284 306.303497,312.668121 
	C309.584869,310.526459 315.396057,312.013977 316.809875,306.003479 
	C320.701660,305.062744 324.987274,304.596130 325.788544,299.026031 
	C326.525269,298.351074 327.262024,297.676147 328.246002,296.460266 
	C328.856323,295.983673 329.466644,295.507080 330.762299,295.007172 
	C331.836304,294.322845 332.910278,293.638519 334.402618,292.730438 
	C334.663116,292.532837 334.845367,292.279053 335.647278,291.891205 
	C336.105072,290.937500 336.562866,289.983795 337.008392,288.998505 
	C337.008392,288.998505 337.035797,289.021088 337.771423,288.992096 
	C341.592133,285.580383 347.281952,283.615784 346.994934,277.004944 
	C346.994934,277.004944 347.041931,277.012299 347.481110,276.782318 
	C347.754425,276.567047 347.920563,276.287964 348.117157,275.506409 
	C348.260193,275.216980 348.482269,275.014099 349.567444,274.962372 
	C355.174164,275.191315 352.749329,270.440887 353.938019,268.004669 
	C353.938019,268.004669 353.908112,267.928314 354.512299,267.927246 
	C354.676636,267.281097 354.840973,266.634918 355.079407,265.366180 
	C355.128204,264.953461 355.177002,264.540710 355.104614,263.999908 
	C355.104614,263.999908 355.186218,264.156219 355.755371,263.802856 
	C365.303955,250.741119 373.781982,228.302734 371.335785,221.473495 
	C370.238159,222.227814 369.259888,222.900101 367.537781,223.287933 
	C367.011200,223.236938 366.484619,223.185944 365.426514,222.649811 
	C364.059021,222.072769 362.712097,221.439774 361.320526,220.928253 
	C354.824921,218.540543 352.966614,219.517075 350.634125,226.010498 
	C347.510345,234.706894 344.224243,243.345001 341.000000,252.000000 
	C341.000000,252.000000 341.008484,252.006149 340.446960,252.370972 
	C337.562256,256.869659 334.677551,261.368347 331.915955,265.847107 
	C331.915955,265.847107 331.803162,265.793945 331.169983,265.991150 
	C324.622650,272.519165 318.334595,279.335663 311.467621,285.508087 
	C300.958466,294.954315 288.322968,300.735901 274.323242,305.142639 
	C273.893738,305.308502 273.464233,305.474396 272.264771,305.521149 
	C266.503143,306.420441 260.741516,307.319733 254.326736,308.123016 
	C253.892548,308.180695 253.458359,308.238373 252.102615,308.095703 
	C243.062271,307.766846 234.021912,307.437988 224.482880,306.971252 
	C224.310730,306.981750 224.138580,306.992218 223.761688,306.741699 
	C223.421906,306.582062 223.125534,306.642731 222.408615,306.764099 
	C222.079956,306.680054 221.757187,306.698639 220.815292,306.326538 
	C214.555420,304.840027 208.295563,303.353516 201.902161,301.168915 
	C199.589249,299.446716 197.276321,297.724518 194.658234,295.404175 
	C188.771179,291.923218 182.884109,288.442261 176.995895,285.006256 
	C176.995895,285.006256 177.038727,284.992462 177.049286,284.301514 
	C171.873489,279.344818 166.771835,274.306183 161.459381,269.500549 
	C160.396439,268.539032 158.529999,268.465790 156.806366,267.425262 
	C156.659286,267.288574 156.512222,267.151917 156.269592,266.397125 
	C155.372818,265.000946 154.449173,263.621216 153.583298,262.206116 
	C140.881821,241.448303 134.837265,218.923157 137.121872,194.659912 
	C137.969467,185.658234 140.975677,176.859818 143.441605,167.446884 
	C144.707443,164.954956 146.141220,162.532959 147.212601,159.960068 
	C155.927429,139.031754 170.914551,123.335869 188.945267,110.307594 
	C195.239960,105.759300 202.107574,102.003899 209.455872,97.760208 
	C215.427322,94.990074 221.398773,92.219933 227.370224,89.449791 
	C218.912796,88.106628 212.599091,92.449249 205.322769,96.198799 
	C188.387253,103.131447 174.894257,114.922997 161.662567,127.094124 
	C155.929367,132.367783 152.250305,139.301620 146.480835,145.410889 
	C145.029861,147.910263 143.254578,150.284729 142.228912,152.947876 
	C141.384338,155.140808 141.428436,157.675980 140.993423,160.817184 
	C139.687012,165.214081 138.380600,169.610992 136.633011,174.658340 
	C136.912476,183.073746 130.942368,190.531479 132.880615,199.268402 
	C133.117966,200.338333 131.771790,201.760895 131.156128,203.018387 
	C130.443497,204.473923 129.207199,205.888855 129.095306,207.388367 
	C128.248260,218.740189 131.164154,229.452515 135.001709,240.726517 
	C136.997955,245.240402 138.994217,249.754288 141.148712,254.626007 
	C138.609177,257.440460 141.454941,258.667877 143.977463,260.052429 
	C143.977463,260.052429 144.048431,259.984497 144.091324,260.527649 
	C144.370224,260.745392 144.649139,260.963165 145.127457,261.603271 
	C145.127457,261.603271 145.412460,261.973267 145.534393,262.634216 
	C150.640732,269.473175 155.747070,276.312103 160.977692,283.098114 
	C160.977692,283.098114 160.842682,283.102386 160.957214,283.776642 
	C166.325394,288.751526 171.693558,293.726410 177.485443,299.230438 
	C186.649841,306.413605 196.287766,312.695099 208.000717,315.112213 
	C208.000717,315.112213 207.875107,315.157867 208.265976,315.702515 
	C209.873993,316.426819 211.482025,317.151123 213.007248,318.564636 
	C212.095032,322.413147 213.347046,324.838165 217.352142,325.936310 
	C220.432892,326.781006 224.306534,326.035950 226.056946,330.091492 
	C226.339417,330.745941 228.491714,331.001984 229.662949,330.791809 
	C234.154633,329.985657 238.614059,328.976532 243.045990,327.882874 
	C243.810211,327.694305 244.382248,326.726837 245.774231,326.016174 
	C246.511368,326.034729 247.248520,326.053314 248.086914,326.646393 
	C248.414749,326.943817 248.742569,327.241272 249.070404,327.538696 
	C249.375351,327.025208 249.680298,326.511749 250.644241,325.901367 
	C251.087662,325.883240 251.531082,325.865112 252.357498,326.387421 
	C254.238281,325.962036 256.119080,325.536621 258.658234,324.999756 
M278.400635,366.579865 
	C278.538971,370.039795 278.677307,373.499756 278.918091,377.798004 
	C278.880493,379.202911 278.842896,380.607849 278.533356,382.203644 
	C278.350037,382.539246 278.442200,382.800415 278.914307,383.649872 
	C278.882690,384.094574 278.851074,384.539307 278.103912,385.011749 
	C277.478851,385.746887 276.853790,386.482025 276.228729,387.217163 
	C277.341309,388.104004 278.333649,389.403656 279.597321,389.771759 
	C281.129700,390.218079 282.891266,389.877655 284.152191,389.877655 
	C286.068024,383.257660 288.041901,376.439911 290.009094,369.620270 
	C290.053772,369.465332 290.022461,369.288513 290.680908,368.990570 
	C291.121429,369.034973 291.561920,369.079346 292.258148,369.523773 
	C292.484192,369.768341 292.762878,369.907684 293.028046,370.012939 
	C293.028046,370.012939 293.071259,369.928284 293.011566,370.870972 
	C292.965027,375.201447 292.809174,379.534637 292.916016,383.861328 
	C292.973236,386.177185 293.483032,388.481842 293.853363,391.281250 
	C296.794922,390.167114 298.607269,389.720734 300.136536,388.802734 
	C300.929962,388.326355 301.734314,386.969330 301.654694,386.089722 
	C301.262329,381.755127 300.814453,377.395844 299.901245,373.149536 
	C299.372040,370.688812 297.927094,368.425018 296.998840,366.018219 
	C296.998840,366.018219 296.920471,366.106384 296.972229,365.345947 
	C296.662903,364.382935 296.353546,363.419922 296.044220,362.456909 
	C294.690826,363.239624 293.337433,364.022308 291.254608,364.953949 
	C290.512329,365.013123 289.770081,365.072296 288.963776,364.524536 
	C286.051147,363.801300 283.138519,363.078033 279.605347,362.200684 
	C279.487061,362.930634 279.241486,364.446198 279.014038,365.998688 
	C279.014038,365.998688 278.975250,366.012451 278.400635,366.579865 
M308.865570,355.383301 
	C307.153076,353.261627 305.816895,353.149841 304.967834,356.908447 
	C304.853821,358.260132 304.739807,359.611816 303.984100,361.157532 
	C302.521729,363.307312 299.464294,365.632996 304.779114,367.905273 
	C304.732025,369.635345 304.684967,371.365387 304.220245,373.714508 
	C304.360229,376.444366 304.500244,379.174194 304.772217,382.754639 
	C304.471954,385.824677 305.275665,387.806824 309.601532,386.727173 
	C312.523895,383.942108 315.332153,386.171234 318.593475,386.968750 
	C318.593475,386.968750 318.983948,387.128723 319.426788,387.637787 
	C323.999512,390.585480 316.898285,391.813568 318.459045,394.406281 
	C322.720764,393.652710 327.001190,392.895813 331.517517,392.097229 
	C330.805969,391.131744 330.013458,390.056396 328.853790,388.482910 
	C332.469727,388.645996 335.677795,388.098724 338.340759,389.060638 
	C343.272034,390.841919 346.989502,389.747955 350.259094,386.031006 
	C350.527710,385.725616 350.471039,385.134064 350.549133,384.754883 
	C349.264191,384.076050 348.095306,383.458527 346.531219,382.632233 
	C348.417267,380.956879 349.770020,379.755249 351.282257,378.411957 
	C345.815613,375.408752 345.790131,374.817474 350.190948,371.990448 
	C349.317139,370.440704 348.703705,368.672394 347.527588,367.441895 
	C346.111786,365.960602 345.195312,362.325958 341.217896,365.141357 
	C340.484161,365.035370 339.750427,364.929352 338.920135,364.271851 
	C338.604553,363.979797 338.289001,363.687744 337.973450,363.395691 
	C337.643799,363.859741 337.314148,364.323822 336.249817,364.920837 
	C335.505646,364.894470 334.761475,364.868134 333.920044,364.173553 
	C333.049561,363.100403 332.179108,362.027252 331.102753,360.700256 
	C328.178009,363.714996 326.089203,367.931396 321.980011,362.521179 
	C320.735992,360.883240 317.760101,361.711151 318.108582,365.114105 
	C318.108582,365.114105 318.087524,365.087830 317.290924,365.024780 
	C316.477478,365.124084 315.652313,365.167511 314.853149,365.334961 
	C313.413574,365.636597 311.989563,366.012604 310.559052,366.357574 
	C311.116241,364.659790 311.491882,362.871033 312.283630,361.290771 
	C313.019196,359.822815 314.198639,358.577240 316.030396,356.076324 
	C312.694183,356.076324 310.796600,356.076324 308.981415,356.007202 
	C308.981415,356.007202 308.930176,356.101776 308.865570,355.383301 
M235.467834,386.575958 
	C239.420029,386.726868 243.375931,387.029144 247.322067,386.932587 
	C248.444565,386.905090 249.538681,385.717346 250.645828,385.061707 
	C249.519653,384.392761 248.458450,383.327789 247.254913,383.130371 
	C243.870117,382.575104 240.426758,382.376923 237.004807,381.095856 
	C236.988113,373.955231 237.081619,366.810974 236.843658,359.677704 
	C236.805084,358.521027 235.296173,357.413361 234.466873,356.283051 
	C233.674286,357.448975 232.231171,358.595795 232.196198,359.784027 
	C231.991226,366.752258 231.923569,373.739349 232.258286,380.698517 
	C232.345764,382.517365 234.029648,384.259430 235.467834,386.575958 
M277.482086,143.050568 
	C281.783539,139.789963 286.084961,136.529358 290.386383,133.268738 
	C290.085297,132.871231 289.784210,132.473724 289.483093,132.076202 
	C284.650879,134.701035 279.818695,137.325867 274.280548,140.032745 
	C273.864899,140.237961 273.449249,140.443176 272.416870,140.665146 
	C271.486176,141.054642 270.555481,141.444138 268.799835,141.873825 
	C255.400314,143.516769 253.041245,142.414017 247.612732,130.928894 
	C245.134613,125.685928 243.201965,120.185471 241.010056,114.806625 
	C240.502823,113.561913 239.946976,112.337021 239.413513,111.103004 
	C238.850967,116.588020 239.324356,121.769745 240.079224,126.910141 
	C241.234619,134.778000 241.753296,142.869370 244.041138,150.411163 
	C247.691742,162.445236 252.562759,174.109848 256.960815,185.914627 
	C257.236908,186.655655 257.885681,187.257828 259.117096,188.985016 
	C259.117096,178.693100 258.954071,169.731720 259.245941,160.785187 
	C259.309113,158.848495 260.561676,156.467468 262.034363,155.148605 
	C266.840332,150.844574 272.001373,146.936935 277.482086,143.050568 
M225.358429,182.538300 
	C221.641998,182.033829 219.923325,179.898682 218.779800,176.262512 
	C215.799942,166.787033 212.271729,157.483368 208.922592,148.125366 
	C208.413879,146.704010 207.693497,145.358383 207.071014,143.977737 
	C206.263779,145.423035 206.501999,146.485657 206.634583,147.561295 
	C207.424561,153.969482 208.783432,160.376343 208.830139,166.791824 
	C208.907562,177.419617 203.925995,182.606415 193.346085,183.776154 
	C187.409760,184.432480 181.417831,184.579941 175.453323,184.991119 
	C173.868927,185.100342 172.293289,185.336899 170.713638,185.514984 
	C170.740952,185.961823 170.768280,186.408676 170.795593,186.855515 
	C175.458572,187.799332 180.094177,188.918747 184.790176,189.650803 
	C194.871643,191.222351 204.655212,195.225922 215.226562,192.949295 
	C219.240402,192.084885 223.461655,192.003494 227.595734,191.916779 
	C234.992416,191.761642 242.394669,191.873062 249.794601,191.873062 
	C248.523773,190.296906 246.960251,189.676224 245.379852,189.102081 
	C238.944763,186.764297 232.504517,184.440765 226.407959,181.196213 
	C227.544357,181.391479 228.700592,181.829239 229.813583,181.738220 
	C233.737671,181.417389 237.165115,179.639847 237.991898,175.733017 
	C238.534912,173.167114 238.181015,169.540680 236.657318,167.667419 
	C235.294250,165.991653 231.566895,165.066956 229.253601,165.558014 
	C222.568375,166.977081 220.551361,174.844437 225.110596,179.963013 
	C225.628845,180.544846 225.791214,181.443665 225.358429,182.538300 
M223.838974,270.468903 
	C227.400009,264.086578 231.190201,257.818481 234.447784,251.284821 
	C236.942245,246.281799 239.101379,241.050888 240.798111,235.726440 
	C242.854630,229.273102 244.143723,222.579437 245.998962,216.056351 
	C247.440826,210.986755 249.241501,206.019196 250.882690,201.006287 
	C250.453217,200.796280 250.023743,200.586273 249.594254,200.376266 
	C247.285553,203.512802 244.997070,206.664490 242.662415,209.781616 
	C240.361649,212.853485 238.014114,215.890350 235.687088,218.942581 
	C235.983047,212.781052 235.278168,207.676575 229.257751,205.297333 
	C226.169296,204.076797 222.989044,204.610641 220.791534,207.646561 
	C218.292892,211.098465 218.660522,214.610596 221.044785,217.807892 
	C224.660599,222.656662 229.303040,222.322937 234.945892,218.933716 
	C233.308792,223.276337 231.685730,225.279709 227.586548,225.269547 
	C217.932587,225.245590 208.276291,225.691345 198.623810,226.029358 
	C197.128281,226.081711 195.647964,226.568451 193.415359,226.997543 
	C200.486618,228.507202 206.739532,229.403473 212.716583,231.211670 
	C224.309677,234.718811 228.070984,241.401764 225.471115,253.149704 
	C223.944061,260.049988 222.079178,266.875488 220.366241,273.734619 
	C220.649384,273.909607 220.932541,274.084564 221.215683,274.259521 
	C221.952560,273.199249 222.689438,272.138977 223.838974,270.468903 
M312.515930,244.019501 
	C309.837891,241.074707 307.297241,237.988708 304.449280,235.218597 
	C300.290649,231.173615 296.526123,226.002914 291.499878,223.718369 
	C280.566284,218.748749 271.924805,210.817398 262.383606,204.036331 
	C261.629364,203.500275 260.519623,203.464432 259.575104,203.196121 
	C264.220734,211.279343 269.672943,218.322662 274.672607,225.673767 
	C275.828796,227.373703 276.195312,230.337646 275.630493,232.358017 
	C272.866608,242.245071 269.638641,252.001755 266.653229,261.828369 
	C266.306030,262.971130 266.444611,264.261505 266.385925,265.089661 
	C271.256256,257.854492 275.554688,250.363647 280.970581,243.794052 
	C284.877838,239.054550 290.766083,237.670883 296.793518,240.466003 
	C300.100281,241.999451 303.302765,243.796417 306.417908,245.695007 
	C310.714966,248.314011 314.885132,251.141266 319.604889,254.200287 
	C319.515015,252.986465 319.652466,252.405960 319.423126,252.125900 
	C317.323334,249.562073 315.159882,247.050430 312.515930,244.019501 
M185.405045,387.270599 
	C190.301224,386.948914 195.197403,386.627228 200.609131,386.271698 
	C200.609131,377.201935 200.668442,367.924896 200.511032,358.651581 
	C200.496414,357.789734 199.107269,356.951202 198.356354,356.101868 
	C197.542953,357.055542 196.262451,357.903595 196.017685,358.985840 
	C195.569550,360.967468 195.733185,363.087433 195.643539,365.108337 
	C184.103180,365.162140 182.558258,365.670380 181.229294,369.640533 
	C179.061737,376.115997 180.558716,383.622742 185.405045,387.270599 
M168.571976,383.076141 
	C161.358582,383.025635 160.362656,381.355743 162.874802,372.993591 
	C165.077606,372.993591 167.425095,373.229858 169.696762,372.916412 
	C171.410538,372.679932 173.027222,371.739990 174.687119,371.113159 
	C173.109848,370.418915 171.584045,369.338318 169.943405,369.119781 
	C167.401093,368.781097 164.780426,369.030426 162.286545,369.030426 
	C161.508698,360.669739 161.508682,360.673523 168.980621,360.695557 
	C170.813049,360.700958 172.670853,360.843201 174.465958,360.577637 
	C175.209442,360.467682 176.257233,359.519165 176.363922,358.828064 
	C176.467148,358.159271 175.540070,356.675079 175.063873,356.674377 
	C170.113831,356.667053 165.097473,356.491791 160.255829,357.299835 
	C158.910736,357.524353 157.410233,360.767120 157.161209,362.771790 
	C156.671906,366.710815 157.004303,370.752655 157.007721,374.751953 
	C157.018387,387.211853 157.024185,387.339050 169.416229,386.967224 
	C171.769272,386.896606 175.193329,388.904266 176.509354,384.841064 
	C174.171082,384.250763 171.832809,383.660492 168.571976,383.076141 
M254.560699,366.781433 
	C255.530258,367.536652 256.432465,368.803650 257.483215,368.942017 
	C259.765503,369.242432 262.172394,368.667175 264.432953,369.035614 
	C265.846893,369.266022 267.087006,370.562927 268.405121,371.381287 
	C268.178162,371.951752 267.951202,372.522186 267.724243,373.092651 
	C265.120239,373.210632 262.512817,373.278687 259.912964,373.457092 
	C254.642456,373.818848 252.906754,375.890991 253.322754,381.212311 
	C253.649246,385.388916 256.785553,388.048248 261.116089,387.574646 
	C264.825500,387.168976 268.506989,386.507751 272.786377,385.872620 
	C272.786377,381.146515 273.173737,375.651093 272.574707,370.265411 
	C272.367188,368.399841 269.839569,365.509003 268.149353,365.342438 
	C263.810730,364.914825 259.347504,365.751770 254.560699,366.781433 
M206.840027,375.910980 
	C206.861511,377.239899 206.891251,378.568756 206.903122,379.897736 
	C206.969345,387.312714 209.670242,389.134369 217.037994,387.057312 
	C218.778137,386.566742 220.820450,387.197174 222.600845,386.783234 
	C223.812744,386.501434 225.712936,385.347015 225.757736,384.500854 
	C226.047256,379.032715 226.034683,373.536743 225.801132,368.063568 
	C225.758774,367.070709 224.239609,366.140839 223.402191,365.181885 
	C222.627121,366.201965 221.278854,367.171722 221.183975,368.251587 
	C220.894226,371.548920 221.147217,374.889923 221.077072,378.211578 
	C220.983109,382.660675 217.320343,382.925903 214.359543,383.065002 
	C213.511581,383.104858 211.873718,380.144592 211.721146,378.458344 
	C211.337311,374.216095 211.594162,369.915833 211.594162,365.794342 
	C207.758575,364.426941 206.340057,365.657806 206.513657,369.046112 
	C206.615555,371.035065 206.669907,373.026428 206.840027,375.910980 
M261.074371,163.614532 
	C261.397003,164.889404 261.500549,166.275482 262.081238,167.419357 
	C264.257568,171.706497 269.907166,173.525375 274.087189,171.421494 
	C277.520660,169.693344 279.101990,165.597702 277.692413,162.083908 
	C275.953339,157.748718 270.333038,155.010925 266.120758,157.150177 
	C264.038605,158.207626 262.782410,160.891434 261.074371,163.614532 
M271.824890,224.865723 
	C268.119232,220.636887 263.197327,219.713470 259.176422,222.492661 
	C256.074524,224.636658 254.804337,229.365814 256.446564,232.656448 
	C258.149689,236.069092 262.980316,237.477020 267.263184,235.809036 
	C272.043976,233.947113 273.520355,230.796097 271.824890,224.865723 
z"/>
<path fill="#55AEE4" opacity="1.000000" stroke="none" 
	d="
M253.024170,308.296051 
	C253.458359,308.238373 253.892548,308.180695 254.737106,308.499908 
	C258.873352,308.591492 262.633850,308.524506 266.312500,307.941223 
	C268.616943,307.575806 270.798187,306.433838 273.034729,305.640289 
	C273.464233,305.474396 273.893738,305.308502 274.939270,305.392395 
	C276.199738,305.734680 276.878632,306.008148 277.483459,305.892944 
	C289.530762,303.597290 299.358002,296.550720 309.138916,289.967072 
	C316.031372,285.327667 321.652252,278.737152 327.573212,272.752991 
	C329.430511,270.875854 330.417694,268.137878 331.803162,265.793945 
	C331.803162,265.793945 331.915955,265.847107 332.193542,265.776245 
	C337.200256,262.312653 340.997833,258.339417 341.008484,252.006149 
	C341.008484,252.006149 341.000000,252.000000 341.352905,251.949768 
	C343.503204,248.669754 345.665497,245.585297 347.021515,242.179779 
	C349.792633,235.220490 352.130188,228.088562 354.580811,221.211578 
	C358.766754,221.919235 362.362396,222.527084 365.958038,223.134949 
	C366.484619,223.185944 367.011200,223.236938 368.147217,223.612274 
	C369.238007,225.704697 370.524658,227.739441 370.044586,229.189117 
	C368.777069,233.016449 366.664551,236.555588 365.037628,240.274734 
	C363.525970,243.730453 362.234406,247.281769 360.796112,250.770462 
	C358.952209,255.243118 357.058502,259.695251 355.186218,264.156219 
	C355.186218,264.156219 355.104614,263.999908 354.797546,264.149078 
	C353.176788,264.499481 351.863098,264.700745 350.284302,264.942596 
	C352.048462,257.187622 352.057098,256.971436 350.775055,255.483627 
	C349.530579,257.677704 348.291168,259.862915 347.038818,262.033905 
	C347.025940,262.019714 347.049744,262.024597 346.801392,262.153137 
	C346.403992,262.614624 346.254913,262.947571 346.018127,263.601257 
	C341.673950,268.967743 337.417511,274.013458 332.862122,278.950562 
	C330.520508,281.313110 328.477875,283.784241 326.446930,286.241272 
	C329.527679,287.517487 331.382507,288.285828 333.049988,289.324341 
	C331.730499,290.137421 330.598328,290.680389 329.055725,291.162018 
	C326.021118,291.374481 323.279602,291.492340 323.210144,295.218994 
	C323.196747,295.258270 323.142975,295.321564 322.841003,295.087769 
	C320.951996,293.464752 319.644501,290.386536 317.174347,292.902557 
	C316.518097,293.570984 318.046570,296.397064 318.597015,298.224945 
	C318.689026,298.530426 318.909973,298.797058 318.945038,299.337646 
	C318.529297,300.070679 318.239838,300.547760 317.604553,301.057861 
	C314.837433,303.360107 312.416107,305.629364 309.652588,307.979065 
	C307.851746,308.639709 306.393066,309.219818 304.735809,309.545898 
	C303.694733,307.864929 302.852234,306.438019 301.788422,305.115295 
	C301.290833,305.417572 301.105438,305.679901 301.005951,306.003723 
	C301.000977,306.001038 301.010986,306.014587 300.645081,306.010895 
	C299.199249,306.348328 298.119324,306.689453 297.018982,307.298096 
	C296.980499,307.921661 296.962433,308.277740 296.678680,308.651489 
	C296.235779,308.658569 296.058594,308.647949 295.600861,308.439026 
	C291.887146,309.503662 288.453979,310.766632 285.009766,312.017212 
	C284.998779,312.004822 285.021698,312.021942 284.686340,312.007263 
	C282.576599,312.686768 280.802185,313.380951 279.015320,314.040222 
	C279.002899,314.005280 279.059113,314.053650 278.767029,314.045959 
	C277.988739,314.307465 277.502563,314.576660 276.764374,314.908356 
	C276.339447,314.978882 276.166534,314.986908 275.666656,314.989075 
	C274.569550,315.268097 273.799408,315.552917 272.755127,315.935120 
	C272.096649,316.069275 271.712250,316.105988 270.865295,316.096802 
	C267.959259,316.809082 264.572113,314.112610 262.748108,318.144592 
	C262.143036,318.201416 261.793152,318.185883 261.001770,318.123291 
	C254.369507,318.396362 248.178726,318.716492 241.743927,319.031128 
	C241.499908,319.025635 241.011597,319.038422 240.696014,319.056458 
	C239.911911,319.446075 239.443390,319.817688 238.654175,320.224121 
	C237.904633,320.235107 237.475800,320.211273 236.805786,319.868469 
	C233.376236,319.367981 230.187820,319.186432 226.739716,318.896362 
	C225.981537,318.529755 225.483063,318.271637 224.799255,317.767151 
	C223.408463,317.681763 222.203003,317.842712 220.668427,317.998108 
	C219.900864,317.978699 219.462448,317.964844 218.940338,317.583862 
	C215.196136,316.530457 211.535614,315.844147 207.875107,315.157867 
	C207.875107,315.157867 208.000717,315.112213 207.802261,314.835083 
	C204.690186,313.069214 201.839218,311.438354 198.850113,310.120911 
	C192.318634,307.242096 185.494217,304.889496 182.524384,297.359528 
	C181.965973,295.943665 180.395660,294.852234 179.098358,293.866211 
	C178.842224,293.671539 177.695465,294.648651 176.707779,294.958862 
	C175.963257,294.564087 175.470398,294.295868 174.983643,293.690369 
	C174.911514,292.485199 174.833298,291.617371 174.727493,290.443359 
	C173.557724,291.122803 172.760834,291.585663 171.747787,291.936401 
	C171.265656,291.621674 171.074799,291.363556 171.021484,290.696716 
	C172.454071,289.464569 173.824265,288.585541 175.185928,287.754395 
	C175.177399,287.802277 175.109634,287.872040 175.186218,288.120300 
	C175.554321,288.533661 175.845856,288.698700 176.071198,288.865845 
	C176.005005,288.867920 176.128754,288.820679 176.242050,289.109741 
	C176.923004,289.580109 177.490646,289.761444 178.042526,289.973938 
	C178.026749,290.005096 178.035767,289.936920 178.173828,290.197815 
	C178.672897,290.596191 179.033890,290.733612 179.647583,290.888123 
	C180.284348,291.204437 180.668442,291.503693 181.171249,292.086151 
	C181.839905,292.587982 182.389847,292.806610 182.966766,293.011627 
	C182.993744,292.998047 182.989319,293.058319 183.098053,293.265198 
	C183.402969,293.729126 183.656113,293.903473 184.194550,294.265472 
	C189.618073,297.002319 194.813248,299.468872 200.226776,302.241852 
	C207.443527,303.972107 214.441925,305.395966 221.440323,306.819824 
	C221.757187,306.698639 222.079956,306.680054 222.912994,306.883301 
	C223.600418,307.002563 223.783432,307.002625 223.966446,307.002655 
	C224.138580,306.992218 224.310730,306.981750 224.837982,307.423584 
	C231.285934,308.580933 237.365021,309.587311 243.477325,309.866394 
	C246.629120,310.010345 249.839996,308.860992 253.024170,308.296051 
z"/>
<path fill="#0A0A0A" opacity="1.000000" stroke="none" 
	d="
M223.632645,270.773804 
	C222.689438,272.138977 221.952560,273.199249 221.215683,274.259521 
	C220.932541,274.084564 220.649384,273.909607 220.366241,273.734619 
	C222.079178,266.875488 223.944061,260.049988 225.471115,253.149704 
	C228.070984,241.401764 224.309677,234.718811 212.716583,231.211670 
	C206.739532,229.403473 200.486618,228.507202 193.415359,226.997543 
	C195.647964,226.568451 197.128281,226.081711 198.623810,226.029358 
	C208.276291,225.691345 217.932587,225.245590 227.586548,225.269547 
	C231.685730,225.279709 233.308792,223.276337 234.945892,218.933716 
	C229.303040,222.322937 224.660599,222.656662 221.044785,217.807892 
	C218.660522,214.610596 218.292892,211.098465 220.791534,207.646561 
	C222.989044,204.610641 226.169296,204.076797 229.257751,205.297333 
	C235.278168,207.676575 235.983047,212.781052 235.687088,218.942581 
	C238.014114,215.890350 240.361649,212.853485 242.662415,209.781616 
	C244.997070,206.664490 247.285553,203.512802 249.594254,200.376266 
	C250.023743,200.586273 250.453217,200.796280 250.882690,201.006287 
	C249.241501,206.019196 247.440826,210.986755 245.998962,216.056351 
	C244.143723,222.579437 242.854630,229.273102 240.798111,235.726440 
	C239.101379,241.050888 236.942245,246.281799 234.447784,251.284821 
	C231.190201,257.818481 227.400009,264.086578 223.632645,270.773804 
z"/>
<path fill="#7D8FA8" opacity="1.000000" stroke="none" 
	d="
M301.564911,191.176285 
	C301.564911,191.176285 301.245087,191.121902 301.084595,190.675049 
	C299.480682,188.201157 298.723663,184.957397 295.036835,186.906647 
	C292.081451,187.636597 289.126038,188.366531 286.170654,189.096481 
	C291.487793,189.425781 296.105103,190.132858 297.719574,195.919281 
	C298.839355,199.932755 298.093323,204.119751 294.114288,205.797287 
	C291.684845,206.821518 287.435181,206.723282 285.537628,205.207764 
	C280.116577,200.878128 282.624542,195.477509 286.349457,189.241714 
	C278.153687,191.713455 271.333649,193.770294 264.513611,195.827118 
	C264.317200,195.469452 264.120819,195.111786 263.924408,194.754120 
	C266.624847,192.766907 269.386292,190.856827 272.013916,188.777573 
	C279.042084,183.216202 286.231171,177.830444 292.953644,171.917145 
	C302.336975,163.663239 314.248627,160.874527 324.867615,155.318924 
	C325.202972,155.731171 325.538300,156.143417 325.873657,156.555679 
	C324.793060,157.980957 323.863892,159.559875 322.603027,160.802216 
	C319.054626,164.298569 315.293671,167.579819 311.758575,171.088989 
	C307.671631,175.145950 306.899994,179.994446 308.912476,186.158722 
	C309.341614,189.383743 307.863129,192.878372 312.409058,192.834869 
	C312.548157,192.937515 312.687225,193.040146 312.996765,193.410461 
	C313.167236,193.678116 313.288940,193.900177 313.288940,193.900177 
	C313.288940,193.900177 313.646881,194.157532 313.776184,194.690430 
	C312.586334,195.824081 311.267212,196.424850 309.948090,197.025604 
	C309.354980,196.667923 308.761871,196.310226 307.941437,195.395874 
	C306.734833,194.282883 305.755554,193.726547 304.776276,193.170197 
	C304.776276,193.170197 304.881378,193.161560 304.773773,192.850342 
	C303.632416,192.084854 302.598663,191.630569 301.564911,191.176285 
z"/>
<path fill="#16222E" opacity="1.000000" stroke="none" 
	d="
M226.066162,182.111984 
	C232.504517,184.440765 238.944763,186.764297 245.379852,189.102081 
	C246.960251,189.676224 248.523773,190.296906 249.794601,191.873062 
	C242.394669,191.873062 234.992416,191.761642 227.595734,191.916779 
	C223.461655,192.003494 219.240402,192.084885 215.226562,192.949295 
	C204.655212,195.225922 194.871643,191.222351 184.790176,189.650803 
	C180.094177,188.918747 175.458572,187.799332 170.795593,186.855515 
	C170.768280,186.408676 170.740952,185.961823 170.713638,185.514984 
	C172.293289,185.336899 173.868927,185.100342 175.453323,184.991119 
	C181.417831,184.579941 187.409760,184.432480 193.346085,183.776154 
	C203.925995,182.606415 208.907562,177.419617 208.830139,166.791824 
	C208.783432,160.376343 207.424561,153.969482 206.634583,147.561295 
	C206.501999,146.485657 206.263779,145.423035 207.071014,143.977737 
	C207.693497,145.358383 208.413879,146.704010 208.922592,148.125366 
	C212.271729,157.483368 215.799942,166.787033 218.779800,176.262512 
	C219.923325,179.898682 221.641998,182.033829 225.731125,182.342270 
	C226.103821,182.146240 226.066162,182.111984 226.066162,182.111984 
z"/>
<path fill="#DBDBDB" opacity="1.000000" stroke="none" 
	d="
M312.765442,244.271545 
	C315.159882,247.050430 317.323334,249.562073 319.423126,252.125900 
	C319.652466,252.405960 319.515015,252.986465 319.604889,254.200287 
	C314.885132,251.141266 310.714966,248.314011 306.417908,245.695007 
	C303.302765,243.796417 300.100281,241.999451 296.793518,240.466003 
	C290.766083,237.670883 284.877838,239.054550 280.970581,243.794052 
	C275.554688,250.363647 271.256256,257.854492 266.385925,265.089661 
	C266.444611,264.261505 266.306030,262.971130 266.653229,261.828369 
	C269.638641,252.001755 272.866608,242.245071 275.630493,232.358017 
	C276.195312,230.337646 275.828796,227.373703 274.672607,225.673767 
	C269.672943,218.322662 264.220734,211.279343 259.575104,203.196121 
	C260.519623,203.464432 261.629364,203.500275 262.383606,204.036331 
	C271.924805,210.817398 280.566284,218.748749 291.499878,223.718369 
	C296.526123,226.002914 300.290649,231.173615 304.449280,235.218597 
	C307.297241,237.988708 309.837891,241.074707 312.765442,244.271545 
z"/>
<path fill="#485E77" opacity="1.000000" stroke="none" 
	d="
M273.033600,140.648376 
	C273.449249,140.443176 273.864899,140.237961 274.804230,140.249847 
	C275.893890,141.270248 276.459869,142.073547 277.025848,142.876831 
	C272.001373,146.936935 266.840332,150.844574 262.034363,155.148605 
	C260.561676,156.467468 259.309113,158.848495 259.245941,160.785187 
	C258.954071,169.731720 259.117096,178.693100 259.117096,188.985016 
	C257.885681,187.257828 257.236908,186.655655 256.960815,185.914627 
	C252.562759,174.109848 247.691742,162.445236 244.041138,150.411163 
	C241.753296,142.869370 241.234619,134.778000 240.079224,126.910141 
	C239.324356,121.769745 238.850967,116.588020 239.413513,111.103004 
	C239.946976,112.337021 240.502823,113.561913 241.010056,114.806625 
	C243.201965,120.185471 245.134613,125.685928 247.612732,130.928894 
	C253.041245,142.414017 255.400314,143.516769 269.552002,141.904190 
	C271.213989,141.505829 272.123810,141.077103 273.033600,140.648376 
z"/>
<path fill="#69B0DC" opacity="1.000000" stroke="none" 
	d="
M145.412460,261.973267 
	C145.412460,261.973267 145.127457,261.603271 144.959747,261.142120 
	C144.544159,260.448822 144.296295,260.216644 144.048431,259.984497 
	C144.048431,259.984497 143.977463,260.052429 143.993195,259.714233 
	C144.878357,258.429413 145.747772,257.482819 146.868042,256.263062 
	C144.814224,252.957138 142.777893,249.351578 140.407440,245.981033 
	C138.872864,243.799042 136.849762,241.960617 135.045563,239.968246 
	C131.164154,229.452515 128.248260,218.740189 129.095306,207.388367 
	C129.207199,205.888855 130.443497,204.473923 131.156128,203.018387 
	C131.771790,201.760895 133.117966,200.338333 132.880615,199.268402 
	C130.942368,190.531479 136.912476,183.073746 137.157333,174.154968 
	C138.993118,170.854980 140.304581,168.058350 142.145233,164.133224 
	C142.619675,166.268402 142.808578,167.118546 142.997467,167.968704 
	C140.975677,176.859818 137.969467,185.658234 137.121872,194.659912 
	C134.837265,218.923157 140.881821,241.448303 153.583298,262.206116 
	C154.449173,263.621216 155.372818,265.000946 156.006119,266.713928 
	C154.816345,268.035339 153.890030,269.039948 152.647690,269.990112 
	C151.484268,269.020691 149.847046,268.029846 149.926392,267.203949 
	C150.267410,263.654846 147.854324,262.887939 145.412460,261.973267 
z"/>
<path fill="#70B2DB" opacity="1.000000" stroke="none" 
	d="
M143.219543,167.707794 
	C142.808578,167.118546 142.619675,166.268402 142.145233,164.133224 
	C140.304581,168.058350 138.993118,170.854980 137.377914,173.829758 
	C138.380600,169.610992 139.687012,165.214081 141.353592,160.300217 
	C143.676285,156.181000 145.791977,152.649170 147.501663,148.930679 
	C147.972672,147.906235 147.232162,146.324738 147.047546,144.998856 
	C152.250305,139.301620 155.929367,132.367783 161.662567,127.094124 
	C174.894257,114.922997 188.387253,103.131447 205.839844,96.384964 
	C207.142456,97.009560 207.928009,97.447975 208.713547,97.886391 
	C202.107574,102.003899 195.239960,105.759300 188.945267,110.307594 
	C170.914551,123.335869 155.927429,139.031754 147.212601,159.960068 
	C146.141220,162.532959 144.707443,164.954956 143.219543,167.707794 
z"/>
<path fill="#ECFAFD" opacity="1.000000" stroke="none" 
	d="
M341.949097,365.267456 
	C345.195312,362.325958 346.111786,365.960602 347.527588,367.441895 
	C348.703705,368.672394 349.317139,370.440704 350.190948,371.990448 
	C345.790131,374.817474 345.815613,375.408752 351.282257,378.411957 
	C349.770020,379.755249 348.417267,380.956879 346.531219,382.632233 
	C348.095306,383.458527 349.264191,384.076050 350.549133,384.754883 
	C350.471039,385.134064 350.527710,385.725616 350.259094,386.031006 
	C346.989502,389.747955 343.272034,390.841919 338.340759,389.060638 
	C335.677795,388.098724 332.469727,388.645996 328.853790,388.482910 
	C330.013458,390.056396 330.805969,391.131744 331.517517,392.097229 
	C327.001190,392.895813 322.720764,393.652710 318.459045,394.406281 
	C316.898285,391.813568 323.999512,390.585480 319.580750,387.343109 
	C320.698822,386.942505 321.662903,386.836578 323.356873,386.650452 
	C320.401123,382.386780 317.732605,378.537384 315.195679,374.877838 
	C317.788330,371.671844 319.993561,368.944916 322.704803,365.592285 
	C320.393860,365.364441 319.263641,365.252991 318.133423,365.141541 
	C317.760101,361.711151 320.735992,360.883240 321.980011,362.521179 
	C326.089203,367.931396 328.178009,363.714996 331.102753,360.700256 
	C332.179108,362.027252 333.049561,363.100403 333.583374,364.590149 
	C331.291809,365.481415 329.336945,365.956085 327.382050,366.430756 
	C327.405060,367.102295 327.428070,367.773804 327.451080,368.445343 
	C329.639832,368.590027 331.844513,368.616821 334.013092,368.910431 
	C336.504120,369.247681 340.227997,367.290131 340.575653,371.672516 
	C340.620117,372.232758 336.419464,373.611755 334.124237,373.780670 
	C328.405426,374.201660 326.174225,375.824493 326.181152,380.384094 
	C326.189697,386.044678 330.823822,388.749847 336.832764,386.568146 
	C338.376923,386.007538 340.348419,384.378296 341.316620,384.860443 
	C345.817017,387.101501 345.065765,383.823151 345.149475,381.537720 
	C345.264923,378.386658 345.579620,375.156189 345.039246,372.095642 
	C344.618408,369.712006 343.022675,367.535828 341.949097,365.267456 
M327.482300,387.592255 
	C327.482300,387.592255 327.413086,387.478363 327.482300,387.592255 
M325.517487,387.411285 
	C325.517487,387.411285 325.586853,387.525635 325.517487,387.411285 
z"/>
<path fill="#66ACD8" opacity="1.000000" stroke="none" 
	d="
M185.045944,387.124512 
	C180.558716,383.622742 179.061737,376.115997 181.229294,369.640533 
	C182.558258,365.670380 184.103180,365.162140 195.643539,365.108337 
	C195.733185,363.087433 195.569550,360.967468 196.017685,358.985840 
	C196.262451,357.903595 197.542953,357.055542 198.356354,356.101868 
	C199.107269,356.951202 200.496414,357.789734 200.511032,358.651581 
	C200.668442,367.924896 200.609131,377.201935 200.609131,386.271698 
	C195.197403,386.627228 190.301224,386.948914 185.045944,387.124512 
M195.549377,370.183685 
	C187.531235,366.804504 184.301285,369.326721 185.033585,378.329224 
	C185.291611,381.501465 186.466125,384.090271 190.017746,383.711090 
	C193.166763,383.374969 196.271774,382.262604 195.986588,377.941040 
	C195.834671,375.639069 195.886871,373.323639 195.549377,370.183685 
z"/>
<path fill="#69B0DC" opacity="1.000000" stroke="none" 
	d="
M169.033249,383.073181 
	C171.832809,383.660492 174.171082,384.250763 176.509354,384.841064 
	C175.193329,388.904266 171.769272,386.896606 169.416229,386.967224 
	C157.024185,387.339050 157.018387,387.211853 157.007721,374.751953 
	C157.004303,370.752655 156.671906,366.710815 157.161209,362.771790 
	C157.410233,360.767120 158.910736,357.524353 160.255829,357.299835 
	C165.097473,356.491791 170.113831,356.667053 175.063873,356.674377 
	C175.540070,356.675079 176.467148,358.159271 176.363922,358.828064 
	C176.257233,359.519165 175.209442,360.467682 174.465958,360.577637 
	C172.670853,360.843201 170.813049,360.700958 168.980621,360.695557 
	C161.508682,360.673523 161.508698,360.669739 162.286545,369.030426 
	C164.780426,369.030426 167.401093,368.781097 169.943405,369.119781 
	C171.584045,369.338318 173.109848,370.418915 174.687119,371.113159 
	C173.027222,371.739990 171.410538,372.679932 169.696762,372.916412 
	C167.425095,373.229858 165.077606,372.993591 162.874802,372.993591 
	C160.362656,381.355743 161.358582,383.025635 169.033249,383.073181 
z"/>
<path fill="#69B0DC" opacity="1.000000" stroke="none" 
	d="
M254.747406,366.432343 
	C259.347504,365.751770 263.810730,364.914825 268.149353,365.342438 
	C269.839569,365.509003 272.367188,368.399841 272.574707,370.265411 
	C273.173737,375.651093 272.786377,381.146515 272.786377,385.872620 
	C268.506989,386.507751 264.825500,387.168976 261.116089,387.574646 
	C256.785553,388.048248 253.649246,385.388916 253.322754,381.212311 
	C252.906754,375.890991 254.642456,373.818848 259.912964,373.457092 
	C262.512817,373.278687 265.120239,373.210632 267.724243,373.092651 
	C267.951202,372.522186 268.178162,371.951752 268.405121,371.381287 
	C267.087006,370.562927 265.846893,369.266022 264.432953,369.035614 
	C262.172394,368.667175 259.765503,369.242432 257.483215,368.942017 
	C256.432465,368.803650 255.530258,367.536652 254.747406,366.432343 
M262.655975,377.013580 
	C260.125122,376.945038 257.487549,377.275391 258.235931,380.582031 
	C258.526489,381.865845 260.986359,383.712067 262.190002,383.530029 
	C265.277435,383.063019 268.972229,382.229797 267.662689,377.200623 
	C266.144836,377.131439 264.836304,377.071808 262.655975,377.013580 
z"/>
<path fill="#67AFDA" opacity="1.000000" stroke="none" 
	d="
M341.583496,365.204407 
	C343.022675,367.535828 344.618408,369.712006 345.039246,372.095642 
	C345.579620,375.156189 345.264923,378.386658 345.149475,381.537720 
	C345.065765,383.823151 345.817017,387.101501 341.316620,384.860443 
	C340.348419,384.378296 338.376923,386.007538 336.832764,386.568146 
	C330.823822,388.749847 326.189697,386.044678 326.181152,380.384094 
	C326.174225,375.824493 328.405426,374.201660 334.124237,373.780670 
	C336.419464,373.611755 340.620117,372.232758 340.575653,371.672516 
	C340.227997,367.290131 336.504120,369.247681 334.013092,368.910431 
	C331.844513,368.616821 329.639832,368.590027 327.451080,368.445343 
	C327.428070,367.773804 327.405060,367.102295 327.382050,366.430756 
	C329.336945,365.956085 331.291809,365.481415 333.632019,364.924255 
	C334.761475,364.868134 335.505646,364.894470 336.953613,364.919556 
	C338.110535,364.886658 338.563599,364.855011 339.016693,364.823364 
	C339.750427,364.929352 340.484161,365.035370 341.583496,365.204407 
M338.232452,376.972351 
	C337.067200,376.990875 335.740021,376.661530 334.775177,377.110626 
	C333.377472,377.761261 331.798645,378.757507 331.171875,380.035339 
	C330.832825,380.726654 332.547882,383.396912 332.929108,383.313507 
	C335.556488,382.738617 338.076416,381.672607 340.630890,380.764526 
	C340.116638,379.512665 339.602386,378.260773 338.232452,376.972351 
z"/>
<path fill="#70B2DB" opacity="1.000000" stroke="none" 
	d="
M206.792847,375.463867 
	C206.669907,373.026428 206.615555,371.035065 206.513657,369.046112 
	C206.340057,365.657806 207.758575,364.426941 211.594162,365.794342 
	C211.594162,369.915833 211.337311,374.216095 211.721146,378.458344 
	C211.873718,380.144592 213.511581,383.104858 214.359543,383.065002 
	C217.320343,382.925903 220.983109,382.660675 221.077072,378.211578 
	C221.147217,374.889923 220.894226,371.548920 221.183975,368.251587 
	C221.278854,367.171722 222.627121,366.201965 223.402191,365.181885 
	C224.239609,366.140839 225.758774,367.070709 225.801132,368.063568 
	C226.034683,373.536743 226.047256,379.032715 225.757736,384.500854 
	C225.712936,385.347015 223.812744,386.501434 222.600845,386.783234 
	C220.820450,387.197174 218.778137,386.566742 217.037994,387.057312 
	C209.670242,389.134369 206.969345,387.312714 206.903122,379.897736 
	C206.891251,378.568756 206.861511,377.239899 206.792847,375.463867 
M210.000961,375.940491 
	C209.879166,373.547852 209.757370,371.155212 209.635559,368.762573 
	C207.109512,377.664673 207.714172,382.672577 210.329437,384.362549 
	C210.198425,381.823151 210.067429,379.283752 210.000961,375.940491 
z"/>
<path fill="#16222E" opacity="1.000000" stroke="none" 
	d="
M226.111206,182.170868 
	C225.791214,181.443665 225.628845,180.544846 225.110596,179.963013 
	C220.551361,174.844437 222.568375,166.977081 229.253601,165.558014 
	C231.566895,165.066956 235.294250,165.991653 236.657318,167.667419 
	C238.181015,169.540680 238.534912,173.167114 237.991898,175.733017 
	C237.165115,179.639847 233.737671,181.417389 229.813583,181.738220 
	C228.700592,181.829239 227.544357,181.391479 226.237061,181.654099 
	C226.066162,182.111984 226.103821,182.146240 226.111206,182.170868 
z"/>
<path fill="#485E77" opacity="1.000000" stroke="none" 
	d="
M261.113403,163.226959 
	C262.782410,160.891434 264.038605,158.207626 266.120758,157.150177 
	C270.333038,155.010925 275.953339,157.748718 277.692413,162.083908 
	C279.101990,165.597702 277.520660,169.693344 274.087189,171.421494 
	C269.907166,173.525375 264.257568,171.706497 262.081238,167.419357 
	C261.500549,166.275482 261.397003,164.889404 261.113403,163.226959 
z"/>
<path fill="#6DB0D8" opacity="1.000000" stroke="none" 
	d="
M347.051758,262.048096 
	C348.291168,259.862915 349.530579,257.677704 350.775055,255.483627 
	C352.057098,256.971436 352.048462,257.187622 350.284302,264.942596 
	C351.863098,264.700745 353.176788,264.499481 354.858154,264.213135 
	C355.177002,264.540710 355.128204,264.953461 354.795288,265.836212 
	C354.310181,266.846954 354.109161,267.387634 353.908142,267.928314 
	C353.908112,267.928314 353.938019,268.004669 353.636444,268.117004 
	C351.817719,270.452179 350.300568,272.674988 348.783417,274.897797 
	C348.482269,275.014099 348.260193,275.216980 347.819397,275.831238 
	C347.361755,276.441467 347.201843,276.726868 347.041931,277.012299 
	C347.041931,277.012299 346.994934,277.004944 346.641907,277.068970 
	C343.196259,280.092377 340.103638,283.051697 336.730774,286.138672 
	C335.379486,287.195618 334.308411,288.124908 333.237335,289.054199 
	C331.382507,288.285828 329.527679,287.517487 326.446930,286.241272 
	C328.477875,283.784241 330.520508,281.313110 332.732391,279.226135 
	C332.518219,280.317413 332.134796,281.024536 331.454102,281.826965 
	C330.946686,282.488464 330.736511,283.054657 330.526337,283.620880 
	C331.175507,283.220276 331.824707,282.819672 332.795471,282.313538 
	C334.393066,281.148163 335.879700,280.259827 336.907562,278.997803 
	C340.771820,274.253479 344.542389,269.429138 348.210480,264.531769 
	C348.952057,263.541687 350.310760,261.520172 347.051758,262.048096 
z"/>
<path fill="#DBDBDB" opacity="1.000000" stroke="none" 
	d="
M271.932678,225.239441 
	C273.520355,230.796097 272.043976,233.947113 267.263184,235.809036 
	C262.980316,237.477020 258.149689,236.069092 256.446564,232.656448 
	C254.804337,229.365814 256.074524,224.636658 259.176422,222.492661 
	C263.197327,219.713470 268.119232,220.636887 271.932678,225.239441 
z"/>
<path fill="#6DB0D8" opacity="1.000000" stroke="none" 
	d="
M318.121002,365.127838 
	C319.263641,365.252991 320.393860,365.364441 322.704803,365.592285 
	C319.993561,368.944916 317.788330,371.671844 315.195679,374.877838 
	C317.732605,378.537384 320.401123,382.386780 323.356873,386.650452 
	C321.662903,386.836578 320.698822,386.942505 319.359344,387.088562 
	C318.983948,387.128723 318.593475,386.968750 318.283264,386.612152 
	C315.567169,382.969360 313.161346,379.683167 310.755493,376.396973 
	C310.148010,376.673950 309.540497,376.950958 308.933014,377.227936 
	C308.933014,380.477539 308.933014,383.727142 308.933014,386.976746 
	C305.275665,387.806824 304.471954,385.824677 304.799164,381.898376 
	C304.763367,378.393219 304.700623,375.744354 304.637878,373.095459 
	C304.684967,371.365387 304.732025,369.635345 304.799103,367.049683 
	C304.754669,364.450562 304.690247,362.707031 304.625824,360.963501 
	C304.739807,359.611816 304.853821,358.260132 305.397949,356.484497 
	C306.862122,356.074310 307.896149,356.088043 308.930176,356.101776 
	C308.930176,356.101776 308.981415,356.007202 308.975891,356.501801 
	C308.970398,362.303558 308.970398,367.610748 308.970398,372.917908 
	C309.580536,373.174805 310.190674,373.431732 310.800842,373.688629 
	C313.229736,370.821716 315.658630,367.954773 318.087524,365.087830 
	C318.087524,365.087830 318.108582,365.114105 318.121002,365.127838 
M305.985229,365.368622 
	C305.985229,371.694244 305.985229,378.019867 305.985229,384.345459 
	C306.429047,384.327545 306.872833,384.309631 307.316650,384.291718 
	C307.316650,376.080322 307.316650,367.868958 307.316650,359.657562 
	C306.872253,359.658478 306.427887,359.659393 305.983490,359.660309 
	C305.983490,361.272217 305.983490,362.884125 305.985229,365.368622 
z"/>
<path fill="#69B0DC" opacity="1.000000" stroke="none" 
	d="
M224.984589,318.013519 
	C225.483063,318.271637 225.981537,318.529755 226.814941,319.268738 
	C230.214600,319.908142 233.279327,320.066681 236.332825,320.590820 
	C237.003342,321.573242 237.723602,322.761414 238.360901,322.718475 
	C244.640060,322.295380 250.905426,321.667816 257.598053,321.106995 
	C259.999176,321.042755 261.976929,320.969818 264.113342,321.162109 
	C264.862640,321.985138 265.453339,322.542877 265.865234,323.145752 
	C265.686462,323.190857 265.323456,323.125916 264.866577,323.087402 
	C261.605560,323.657196 258.801392,324.265503 255.644012,324.926514 
	C254.185364,325.268463 253.079926,325.557739 251.974503,325.846985 
	C251.531082,325.865112 251.087662,325.883240 249.981247,325.904022 
	C248.874054,325.961761 248.429855,326.016815 247.985657,326.071899 
	C247.248520,326.053314 246.511368,326.034729 244.999405,326.045715 
	C238.491791,326.819580 232.759018,327.563904 227.026230,328.308228 
	C226.960068,327.735962 226.893906,327.163696 226.827728,326.591431 
	C228.809647,326.264038 230.791550,325.936615 233.707642,325.454895 
	C229.816223,324.823151 226.906494,324.350769 224.035675,323.552063 
	C224.377945,321.488312 224.681274,319.750916 224.984589,318.013519 
z"/>
<path fill="#6DB0D8" opacity="1.000000" stroke="none" 
	d="
M331.486572,265.892548 
	C330.417694,268.137878 329.430511,270.875854 327.573212,272.752991 
	C321.652252,278.737152 316.031372,285.327667 309.138916,289.967072 
	C299.358002,296.550720 289.530762,303.597290 277.483459,305.892944 
	C276.878632,306.008148 276.199738,305.734680 275.289368,305.396973 
	C288.322968,300.735901 300.958466,294.954315 311.467621,285.508087 
	C318.334595,279.335663 324.622650,272.519165 331.486572,265.892548 
z"/>
<path fill="#69B0DC" opacity="1.000000" stroke="none" 
	d="
M234.980377,386.036774 
	C234.029648,384.259430 232.345764,382.517365 232.258286,380.698517 
	C231.923569,373.739349 231.991226,366.752258 232.196198,359.784027 
	C232.231171,358.595795 233.674286,357.448975 234.466888,356.283051 
	C235.296173,357.413361 236.805084,358.521027 236.843658,359.677704 
	C237.081619,366.810974 236.988113,373.955231 236.998993,381.909332 
	C236.322235,383.827454 235.651306,384.932129 234.980377,386.036774 
z"/>
<path fill="#63AEDB" opacity="1.000000" stroke="none" 
	d="
M152.963715,270.044586 
	C153.890030,269.039948 154.816345,268.035339 156.053894,267.022949 
	C156.512222,267.151917 156.659286,267.288574 156.956787,268.048309 
	C159.789917,271.466644 162.472610,274.261902 165.207108,277.371887 
	C166.833939,279.133820 168.408981,280.581116 169.989670,282.014130 
	C169.995331,281.999878 169.967026,282.017914 170.064697,282.332397 
	C171.839737,284.333435 173.517105,286.019958 175.194458,287.706512 
	C173.824265,288.585541 172.454071,289.464569 170.668518,290.620209 
	C168.356232,286.801697 166.817276,282.274414 160.842682,283.102386 
	C160.842682,283.102386 160.977692,283.098114 160.965958,282.737793 
	C160.284866,280.589783 159.615509,278.802094 158.932419,276.665802 
	C157.942505,275.215637 156.966309,274.114044 155.692520,272.877563 
	C154.584518,271.843323 153.774109,270.943970 152.963715,270.044586 
z"/>
<path fill="#66ACD8" opacity="1.000000" stroke="none" 
	d="
M289.027802,365.131470 
	C289.770081,365.072296 290.512329,365.013123 291.980286,364.956787 
	C294.110809,365.341858 295.515625,365.724152 296.920471,366.106384 
	C296.920471,366.106384 296.998840,366.018219 297.044647,366.450348 
	C297.428741,372.426331 297.875427,377.967468 298.013794,383.516327 
	C298.041473,384.627106 296.894287,385.767212 296.288818,386.893799 
	C295.518890,385.765991 294.217804,384.701843 294.073669,383.499023 
	C293.534393,379.000031 293.373840,374.455658 293.071228,369.928284 
	C293.071259,369.928284 293.028046,370.012939 292.986206,369.728302 
	C292.630371,369.337036 292.316406,369.230408 292.002441,369.123749 
	C291.561920,369.079346 291.121429,369.034973 289.985535,369.014587 
	C287.285187,369.875427 285.280243,370.712250 283.204773,371.039948 
	C283.171204,369.850677 283.208160,369.170563 283.521332,368.403503 
	C285.540985,367.254883 287.284393,366.193176 289.027802,365.131470 
z"/>
<path fill="#D3F5FD" opacity="1.000000" stroke="none" 
	d="
M223.996750,323.878357 
	C226.906494,324.350769 229.816223,324.823151 233.707642,325.454895 
	C230.791550,325.936615 228.809647,326.264038 226.827728,326.591431 
	C226.893906,327.163696 226.960068,327.735962 227.026230,328.308228 
	C232.759018,327.563904 238.491791,326.819580 244.633820,326.097198 
	C244.382248,326.726837 243.810211,327.694305 243.045990,327.882874 
	C238.614059,328.976532 234.154633,329.985657 229.662949,330.791809 
	C228.491714,331.001984 226.339417,330.745941 226.056946,330.091492 
	C224.306534,326.035950 220.432892,326.781006 217.352142,325.936310 
	C213.347046,324.838165 212.095032,322.413147 213.403198,318.276978 
	C215.197769,318.585083 216.596420,319.180847 218.242096,319.927917 
	C218.966339,320.398956 219.443542,320.718750 220.053345,321.334045 
	C221.456192,322.379150 222.726471,323.128754 223.996750,323.878357 
z"/>
<path fill="#6DB0D8" opacity="1.000000" stroke="none" 
	d="
M355.470795,263.979553 
	C357.058502,259.695251 358.952209,255.243118 360.796112,250.770462 
	C362.234406,247.281769 363.525970,243.730453 365.037628,240.274734 
	C366.664551,236.555588 368.777069,233.016449 370.044586,229.189117 
	C370.524658,227.739441 369.238007,225.704697 368.519165,223.754517 
	C369.259888,222.900101 370.238159,222.227814 371.335785,221.473495 
	C373.781982,228.302734 365.303955,250.741119 355.470795,263.979553 
z"/>
<path fill="#ECFAFD" opacity="1.000000" stroke="none" 
	d="
M304.934418,309.799927 
	C306.393066,309.219818 307.851746,308.639709 309.989319,307.903534 
	C312.377686,307.079651 314.087189,306.411835 315.860077,305.821960 
	C315.923492,305.899963 316.052185,306.054413 316.052185,306.054413 
	C315.396057,312.013977 309.584869,310.526459 306.303497,312.668121 
	C303.989624,314.178284 301.167877,314.915222 298.563049,315.973206 
	C296.048737,316.994415 293.521881,317.984558 290.195679,318.990479 
	C286.957153,319.313812 284.523499,319.634979 282.232056,319.639648 
	C288.052155,316.643799 293.730072,313.964478 299.726776,311.226074 
	C300.693878,311.072418 301.342224,310.977814 302.333252,310.914856 
	C303.428802,310.564301 304.181610,310.182129 304.934418,309.799927 
z"/>
<path fill="#ECFAFD" opacity="1.000000" stroke="none" 
	d="
M283.275269,371.549103 
	C285.280243,370.712250 287.285187,369.875427 289.658386,369.080261 
	C290.022461,369.288513 290.053772,369.465332 290.009094,369.620270 
	C288.041901,376.439911 286.068024,383.257660 284.152191,389.877655 
	C282.891266,389.877655 281.129700,390.218079 279.597321,389.771759 
	C278.333649,389.403656 277.341309,388.104004 276.228729,387.217163 
	C276.853790,386.482025 277.478851,385.746887 278.578094,385.381897 
	C282.643494,387.414581 282.972839,387.326385 283.115967,383.922272 
	C283.289215,379.802948 283.232483,375.673920 283.275269,371.549103 
z"/>
<path fill="#63AEDB" opacity="1.000000" stroke="none" 
	d="
M176.959442,295.085419 
	C177.695465,294.648651 178.842224,293.671539 179.098358,293.866211 
	C180.395660,294.852234 181.965973,295.943665 182.524384,297.359528 
	C185.494217,304.889496 192.318634,307.242096 198.850113,310.120911 
	C201.839218,311.438354 204.690186,313.069214 207.754791,314.882080 
	C196.287766,312.695099 186.649841,306.413605 177.251480,298.606171 
	C176.998169,297.016418 176.978806,296.050903 176.959442,295.085419 
M181.483109,299.593109 
	C181.483109,299.593109 181.412872,299.477692 181.483109,299.593109 
z"/>
<path fill="#6DB0D8" opacity="1.000000" stroke="none" 
	d="
M365.692261,222.892380 
	C362.362396,222.527084 358.766754,221.919235 354.580811,221.211578 
	C352.130188,228.088562 349.792633,235.220490 347.021515,242.179779 
	C345.665497,245.585297 343.503204,248.669754 341.356812,251.953827 
	C344.224243,243.345001 347.510345,234.706894 350.634125,226.010498 
	C352.966614,219.517075 354.824921,218.540543 361.320526,220.928253 
	C362.712097,221.439774 364.059021,222.072769 365.692261,222.892380 
z"/>
<path fill="#ECFAFD" opacity="1.000000" stroke="none" 
	d="
M293.041382,370.399628 
	C293.373840,374.455658 293.534393,379.000031 294.073669,383.499023 
	C294.217804,384.701843 295.518890,385.765991 296.288818,386.893799 
	C296.894287,385.767212 298.041473,384.627106 298.013794,383.516327 
	C297.875427,377.967468 297.428741,372.426331 296.992340,366.477539 
	C297.927094,368.425018 299.372040,370.688812 299.901245,373.149536 
	C300.814453,377.395844 301.262329,381.755127 301.654694,386.089722 
	C301.734314,386.969330 300.929962,388.326355 300.136536,388.802734 
	C298.607269,389.720734 296.794922,390.167114 293.853363,391.281250 
	C293.483032,388.481842 292.973236,386.177185 292.916016,383.861328 
	C292.809174,379.534637 292.965027,375.201447 293.041382,370.399628 
z"/>
<path fill="#D3F5FD" opacity="1.000000" stroke="none" 
	d="
M175.185928,287.754395 
	C173.517105,286.019958 171.839737,284.333435 170.422852,282.222870 
	C172.801788,282.863403 174.920258,283.927917 177.038727,284.992462 
	C177.038727,284.992462 176.995895,285.006256 177.095200,285.312317 
	C183.117477,289.079681 189.040436,292.540985 194.963409,296.002319 
	C197.276321,297.724518 199.589249,299.446716 201.632996,301.564178 
	C200.912048,301.951416 200.460236,301.943420 200.008438,301.935425 
	C194.813248,299.468872 189.618073,297.002319 184.137665,294.023315 
	C183.627792,293.239746 183.340073,293.088928 182.989319,293.058319 
	C182.989319,293.058319 182.993744,292.998047 182.815704,292.760529 
	C182.109283,292.282959 181.580902,292.042938 181.052521,291.802917 
	C180.668442,291.503693 180.284348,291.204437 179.462051,290.672729 
	C178.694473,290.272461 178.365128,290.104675 178.035767,289.936920 
	C178.035767,289.936920 178.026749,290.005096 177.903290,289.705627 
	C177.229477,289.210999 176.679108,289.015839 176.128754,288.820679 
	C176.128754,288.820679 176.005005,288.867920 176.014404,288.605835 
	C175.719070,288.186493 175.414352,288.029266 175.109634,287.872040 
	C175.109634,287.872040 175.177399,287.802277 175.185928,287.754395 
z"/>
<path fill="#63AEDB" opacity="1.000000" stroke="none" 
	d="
M283.204773,371.039948 
	C283.232483,375.673920 283.289215,379.802948 283.115967,383.922272 
	C282.972839,387.326385 282.643494,387.414581 278.935852,385.368042 
	C278.851074,384.539307 278.882690,384.094574 278.911011,383.074677 
	C278.907715,382.499481 278.805298,382.012756 278.805298,382.012756 
	C278.842896,380.607849 278.880493,379.202911 278.939880,376.929626 
	C278.966187,372.711670 278.970703,369.362061 278.975220,366.012451 
	C278.975250,366.012451 279.014038,365.998688 279.381958,365.917480 
	C280.914948,366.721008 282.080017,367.605743 283.245087,368.490479 
	C283.208160,369.170563 283.171204,369.850677 283.204773,371.039948 
z"/>
<path fill="#74AFD1" opacity="1.000000" stroke="none" 
	d="
M209.084717,97.823303 
	C207.928009,97.447975 207.142456,97.009560 206.203278,96.349045 
	C212.599091,92.449249 218.912796,88.106628 227.370224,89.449791 
	C221.398773,92.219933 215.427322,94.990074 209.084717,97.823303 
z"/>
<path fill="#BFEEFC" opacity="1.000000" stroke="none" 
	d="
M135.023636,240.347382 
	C136.849762,241.960617 138.872864,243.799042 140.407440,245.981033 
	C142.777893,249.351578 144.814224,252.957138 146.868042,256.263062 
	C145.747772,257.482819 144.878357,258.429413 143.944077,259.715210 
	C141.454941,258.667877 138.609177,257.440460 141.148712,254.626007 
	C138.994217,249.754288 136.997955,245.240402 135.023636,240.347382 
z"/>
<path fill="#ECFAFD" opacity="1.000000" stroke="none" 
	d="
M317.689209,365.056305 
	C315.658630,367.954773 313.229736,370.821716 310.800842,373.688629 
	C310.190674,373.431732 309.580536,373.174805 308.970398,372.917908 
	C308.970398,367.610748 308.970398,362.303558 308.934692,356.536377 
	C310.796600,356.076324 312.694183,356.076324 316.030396,356.076324 
	C314.198639,358.577240 313.019196,359.822815 312.283630,361.290771 
	C311.491882,362.871033 311.116241,364.659790 310.559052,366.357574 
	C311.989563,366.012604 313.413574,365.636597 314.853149,365.334961 
	C315.652313,365.167511 316.477478,365.124084 317.689209,365.056305 
z"/>
<path fill="#8A96A6" opacity="1.000000" stroke="none" 
	d="
M310.134583,197.303253 
	C311.267212,196.424850 312.586334,195.824081 313.884827,194.882217 
	C318.144806,199.037216 322.425385,203.533325 326.705994,208.029434 
	C326.539307,208.292145 326.372620,208.554840 326.205963,208.817535 
	C320.910980,205.071991 315.616028,201.326447 310.134583,197.303253 
z"/>
<path fill="#74AFD1" opacity="1.000000" stroke="none" 
	d="
M299.407990,311.285156 
	C293.730072,313.964478 288.052155,316.643799 281.973572,319.799805 
	C281.054657,321.141022 280.536407,322.005585 280.018158,322.870178 
	C279.565674,322.926819 279.113220,322.983490 277.984680,323.005737 
	C276.534576,322.652222 275.760498,322.333069 275.173035,321.818970 
	C276.312714,321.624023 277.265839,321.624023 278.170990,321.624023 
	C277.289246,320.488190 276.542084,319.525787 276.119202,318.392731 
	C283.623199,315.469421 290.802887,312.716705 298.155579,310.244781 
	C298.688416,310.778778 299.048187,311.031952 299.407990,311.285156 
z"/>
<path fill="#6DB0D8" opacity="1.000000" stroke="none" 
	d="
M235.224106,386.306366 
	C235.651306,384.932129 236.322235,383.827454 236.999817,382.380371 
	C240.426758,382.376923 243.870117,382.575104 247.254913,383.130371 
	C248.458450,383.327789 249.519653,384.392761 250.645828,385.061707 
	C249.538681,385.717346 248.444565,386.905090 247.322067,386.932587 
	C243.375931,387.029144 239.420029,386.726868 235.224106,386.306366 
z"/>
<path fill="#82B4D1" opacity="1.000000" stroke="none" 
	d="
M176.707779,294.958862 
	C176.978806,296.050903 176.998169,297.016418 177.039627,298.341614 
	C171.693558,293.726410 166.325394,288.751526 160.899948,283.439514 
	C166.817276,282.274414 168.356232,286.801697 170.606125,290.973328 
	C171.074799,291.363556 171.265656,291.621674 171.897949,292.218475 
	C173.168686,293.084351 174.073105,293.556030 174.977539,294.027679 
	C175.470398,294.295868 175.963257,294.564087 176.707779,294.958862 
z"/>
<path fill="#82B4D1" opacity="1.000000" stroke="none" 
	d="
M177.044006,284.646973 
	C174.920258,283.927917 172.801788,282.863403 170.325165,281.908386 
	C169.967026,282.017914 169.995331,281.999878 170.071274,281.668884 
	C168.483246,279.910980 166.819275,278.484100 165.155304,277.057190 
	C162.472610,274.261902 159.789917,271.466644 157.070633,268.327148 
	C158.529999,268.465790 160.396439,268.539032 161.459381,269.500549 
	C166.771835,274.306183 171.873489,279.344818 177.044006,284.646973 
z"/>
<path fill="#82B4D1" opacity="1.000000" stroke="none" 
	d="
M152.647690,269.990112 
	C153.774109,270.943970 154.584518,271.843323 155.829224,273.191193 
	C157.157730,274.764587 158.051941,275.889465 158.946152,277.014374 
	C159.615509,278.802094 160.284866,280.589783 160.903809,282.764282 
	C155.747070,276.312103 150.640732,269.473175 145.473419,262.303741 
	C147.854324,262.887939 150.267410,263.654846 149.926392,267.203949 
	C149.847046,268.029846 151.484268,269.020691 152.647690,269.990112 
z"/>
<path fill="#5D6879" opacity="1.000000" stroke="none" 
	d="
M277.253967,142.963699 
	C276.459869,142.073547 275.893890,141.270248 275.157196,140.208832 
	C279.818695,137.325867 284.650879,134.701035 289.483093,132.076202 
	C289.784210,132.473724 290.085297,132.871231 290.386383,133.268738 
	C286.084961,136.529358 281.783539,139.789963 277.253967,142.963699 
z"/>
<path fill="#BFEEFC" opacity="1.000000" stroke="none" 
	d="
M333.049988,289.324341 
	C334.308411,288.124908 335.379486,287.195618 336.733734,286.514679 
	C337.023224,287.515717 337.029510,288.268402 337.035797,289.021088 
	C337.035797,289.021088 337.008392,288.998505 336.722351,289.145844 
	C335.940643,290.185150 335.445007,291.077118 334.949371,291.969086 
	C334.845367,292.279053 334.663116,292.532837 333.819702,292.850037 
	C332.183533,293.656586 331.130219,294.343506 330.076935,295.030457 
	C329.466644,295.507080 328.856323,295.983673 327.787964,296.725708 
	C326.554474,297.304474 325.778961,297.617828 324.648407,297.965515 
	C322.179016,299.008148 320.064667,300.016510 317.950378,301.024841 
	C318.239838,300.547760 318.529297,300.070679 319.239685,299.198486 
	C320.821442,297.642792 321.982208,296.482178 323.142975,295.321564 
	C323.142975,295.321564 323.196747,295.258270 323.555664,295.234772 
	C325.765106,293.881989 327.615631,292.552704 329.466156,291.223389 
	C330.598328,290.680389 331.730499,290.137421 333.049988,289.324341 
z"/>
<path fill="#6DB0D8" opacity="1.000000" stroke="none" 
	d="
M252.563385,308.195862 
	C249.839996,308.860992 246.629120,310.010345 243.477325,309.866394 
	C237.365021,309.587311 231.285934,308.580933 225.087326,307.492523 
	C234.021912,307.437988 243.062271,307.766846 252.563385,308.195862 
z"/>
<path fill="#82B4D1" opacity="1.000000" stroke="none" 
	d="
M194.810822,295.703247 
	C189.040436,292.540985 183.117477,289.079681 177.095779,285.289825 
	C182.884109,288.442261 188.771179,291.923218 194.810822,295.703247 
z"/>
<path fill="#ECFAFD" opacity="1.000000" stroke="none" 
	d="
M309.267273,386.851959 
	C308.933014,383.727142 308.933014,380.477539 308.933014,377.227936 
	C309.540497,376.950958 310.148010,376.673950 310.755493,376.396973 
	C313.161346,379.683167 315.567169,382.969360 318.073547,386.588898 
	C315.332153,386.171234 312.523895,383.942108 309.267273,386.851959 
M310.469910,381.684265 
	C311.019928,382.025665 311.569977,382.367035 312.119965,382.708435 
	C312.255188,382.431976 312.390381,382.155548 312.525604,381.879120 
	C311.986938,381.672089 311.448273,381.465027 310.469910,381.684265 
z"/>
<path fill="#ECFAFD" opacity="1.000000" stroke="none" 
	d="
M337.403625,289.006592 
	C337.029510,288.268402 337.023224,287.515717 337.013977,286.387024 
	C340.103638,283.051697 343.196259,280.092377 346.655212,277.088715 
	C347.281952,283.615784 341.592133,285.580383 337.403625,289.006592 
z"/>
<path fill="#D3F5FD" opacity="1.000000" stroke="none" 
	d="
M146.764191,145.204865 
	C147.232162,146.324738 147.972672,147.906235 147.501663,148.930679 
	C145.791977,152.649170 143.676285,156.181000 141.396240,159.921356 
	C141.428436,157.675980 141.384338,155.140808 142.228912,152.947876 
	C143.254578,150.284729 145.029861,147.910263 146.764191,145.204865 
z"/>
<path fill="#6DB0D8" opacity="1.000000" stroke="none" 
	d="
M272.649750,305.580719 
	C270.798187,306.433838 268.616943,307.575806 266.312500,307.941223 
	C262.633850,308.524506 258.873352,308.591492 255.063675,308.547913 
	C260.741516,307.319733 266.503143,306.420441 272.649750,305.580719 
z"/>
<path fill="#ECFAFD" opacity="1.000000" stroke="none" 
	d="
M283.521332,368.403503 
	C282.080017,367.605743 280.914948,366.721008 279.372864,365.899048 
	C279.241486,364.446198 279.487061,362.930634 279.605347,362.200684 
	C283.138519,363.078033 286.051147,363.801300 288.995789,364.828003 
	C287.284393,366.193176 285.540985,367.254883 283.521332,368.403503 
z"/>
<path fill="#6DB0D8" opacity="1.000000" stroke="none" 
	d="
M340.727722,252.188568 
	C340.997833,258.339417 337.200256,262.312653 332.132019,265.786194 
	C334.677551,261.368347 337.562256,256.869659 340.727722,252.188568 
z"/>
<path fill="#63AEDB" opacity="1.000000" stroke="none" 
	d="
M217.995056,319.776642 
	C216.596420,319.180847 215.197769,318.585083 213.444595,317.932343 
	C211.482025,317.151123 209.873993,316.426819 208.070541,315.430176 
	C211.535614,315.844147 215.196136,316.530457 218.705505,317.736267 
	C218.367935,318.762726 218.181488,319.269684 217.995056,319.776642 
z"/>
<path fill="#6DB0D8" opacity="1.000000" stroke="none" 
	d="
M200.226776,302.241821 
	C200.460236,301.943420 200.912048,301.951416 201.699768,301.913208 
	C208.295563,303.353516 214.555420,304.840027 221.127808,306.573181 
	C214.441925,305.395966 207.443527,303.972107 200.226776,302.241821 
z"/>
<path fill="#ECFAFD" opacity="1.000000" stroke="none" 
	d="
M325.105347,299.112518 
	C324.987274,304.596130 320.701660,305.062744 316.431030,306.028931 
	C316.052185,306.054413 315.923492,305.899963 316.073975,305.570862 
	C319.142487,303.155243 322.060577,301.068726 325.010925,299.014221 
	C325.043213,299.046173 325.105347,299.112518 325.105347,299.112518 
z"/>
<path fill="#D3F5FD" opacity="1.000000" stroke="none" 
	d="
M265.323456,323.125916 
	C265.323456,323.125916 265.686462,323.190857 266.231995,323.151062 
	C267.513031,323.092224 268.248566,323.073181 268.989807,323.347046 
	C268.997070,323.835297 268.998657,324.030609 269.000275,324.225922 
	C266.171753,324.653503 263.343262,325.081085 260.511292,324.969147 
	C262.113068,323.995056 263.718262,323.560486 265.323456,323.125916 
z"/>
<path fill="#82B4D1" opacity="1.000000" stroke="none" 
	d="
M280.402283,322.902161 
	C280.536407,322.005585 281.054657,321.141022 281.831390,320.116333 
	C284.523499,319.634979 286.957153,319.313812 289.820312,318.985962 
	C287.095367,320.297577 283.940887,321.615875 280.402283,322.902161 
z"/>
<path fill="#ECFAFD" opacity="1.000000" stroke="none" 
	d="
M349.175415,274.930084 
	C350.300568,272.674988 351.817719,270.452179 353.632446,268.077576 
	C352.749329,270.440887 355.174164,275.191315 349.175415,274.930084 
z"/>
<path fill="#ECFAFD" opacity="1.000000" stroke="none" 
	d="
M304.304962,361.060516 
	C304.690247,362.707031 304.754669,364.450562 304.726562,366.622772 
	C299.464294,365.632996 302.521729,363.307312 304.304962,361.060516 
z"/>
<path fill="#8A96A6" opacity="1.000000" stroke="none" 
	d="
M295.237854,187.167267 
	C298.723663,184.957397 299.480682,188.201157 300.964111,190.566467 
	C299.149017,189.745804 297.293915,188.586838 295.237854,187.167267 
z"/>
<path fill="#82B4D1" opacity="1.000000" stroke="none" 
	d="
M269.369293,324.164917 
	C268.998657,324.030609 268.997070,323.835297 269.243591,323.051025 
	C271.323273,322.312653 273.154846,322.163300 274.986420,322.013916 
	C275.760498,322.333069 276.534576,322.652222 277.642761,322.981934 
	C276.564758,323.299438 275.152618,323.606293 273.109985,323.945251 
	C272.313293,324.020599 272.147125,324.063873 271.980988,324.107117 
	C271.233429,324.106049 270.485870,324.104980 269.369293,324.164917 
z"/>
<path fill="#8A96A6" opacity="1.000000" stroke="none" 
	d="
M312.297363,192.496262 
	C307.863129,192.878372 309.341614,189.383743 308.955933,186.572357 
	C310.024170,188.164642 311.104950,190.161148 312.297363,192.496262 
z"/>
<path fill="#ECFAFD" opacity="1.000000" stroke="none" 
	d="
M296.946350,365.726196 
	C295.515625,365.724152 294.110809,365.341858 292.345032,364.882294 
	C293.337433,364.022308 294.690826,363.239624 296.044220,362.456909 
	C296.353546,363.419922 296.662903,364.382935 296.946350,365.726196 
z"/>
<path fill="#6DB0D8" opacity="1.000000" stroke="none" 
	d="
M264.866577,323.087402 
	C263.718262,323.560486 262.113068,323.995056 260.248810,324.670105 
	C259.545898,324.940308 259.102081,324.970032 257.997650,324.997437 
	C256.890472,324.954712 256.443848,324.914276 255.997238,324.873840 
	C258.801392,324.265503 261.605560,323.657196 264.866577,323.087402 
z"/>
<path fill="#ECFAFD" opacity="1.000000" stroke="none" 
	d="
M278.687927,366.296143 
	C278.970703,369.362061 278.966187,372.711670 278.888641,376.510498 
	C278.677307,373.499756 278.538971,370.039795 278.687927,366.296143 
z"/>
<path fill="#ECFAFD" opacity="1.000000" stroke="none" 
	d="
M304.429077,373.404968 
	C304.700623,375.744354 304.763367,378.393219 304.733154,381.473083 
	C304.500244,379.174194 304.360229,376.444366 304.429077,373.404968 
z"/>
<path fill="#D3F5FD" opacity="1.000000" stroke="none" 
	d="
M255.644012,324.926514 
	C256.443848,324.914276 256.890472,324.954712 257.668457,325.053162 
	C256.119080,325.536621 254.238281,325.962036 252.166000,326.117188 
	C253.079926,325.557739 254.185364,325.268463 255.644012,324.926514 
z"/>
<path fill="#ECFAFD" opacity="1.000000" stroke="none" 
	d="
M308.897888,355.742554 
	C307.896149,356.088043 306.862122,356.074310 305.440765,356.078796 
	C305.816895,353.149841 307.153076,353.261627 308.897888,355.742554 
z"/>
<path fill="#ECFAFD" opacity="1.000000" stroke="none" 
	d="
M330.419617,295.018799 
	C331.130219,294.343506 332.183533,293.656586 333.610535,292.961914 
	C332.910278,293.638519 331.836304,294.322845 330.419617,295.018799 
z"/>
<path fill="#ECFAFD" opacity="1.000000" stroke="none" 
	d="
M325.003479,297.931183 
	C325.778961,297.617828 326.554474,297.304474 327.664368,296.996155 
	C327.262024,297.676147 326.525269,298.351074 325.446960,299.069275 
	C325.105347,299.112518 325.043213,299.046173 325.041992,298.752075 
	C325.028351,298.282379 325.015900,298.106781 325.003479,297.931183 
z"/>
<path fill="#8A96A6" opacity="1.000000" stroke="none" 
	d="
M301.738312,191.468201 
	C302.598663,191.630569 303.632416,192.084854 304.749237,192.897034 
	C303.858765,192.756638 302.885254,192.258377 301.738312,191.468201 
z"/>
<path fill="#ECFAFD" opacity="1.000000" stroke="none" 
	d="
M335.298340,291.930145 
	C335.445007,291.077118 335.940643,290.185150 336.728485,289.161621 
	C336.562866,289.983795 336.105072,290.937500 335.298340,291.930145 
z"/>
<path fill="#5D6879" opacity="1.000000" stroke="none" 
	d="
M272.725220,140.656769 
	C272.123810,141.077103 271.213989,141.505829 269.964478,141.884094 
	C270.555481,141.444138 271.486176,141.054642 272.725220,140.656769 
z"/>
<path fill="#ECFAFD" opacity="1.000000" stroke="none" 
	d="
M338.968414,364.547607 
	C338.563599,364.855011 338.110535,364.886658 337.320953,364.853088 
	C337.314148,364.323822 337.643799,363.859741 337.973450,363.395691 
	C338.289001,363.687744 338.604553,363.979797 338.968414,364.547607 
z"/>
<path fill="#ECFAFD" opacity="1.000000" stroke="none" 
	d="
M354.210205,267.927795 
	C354.109161,267.387634 354.310181,266.846954 354.758240,266.147522 
	C354.840973,266.634918 354.676636,267.281097 354.210205,267.927795 
z"/>
<path fill="#8A96A6" opacity="1.000000" stroke="none" 
	d="
M304.884155,193.486511 
	C305.755554,193.726547 306.734833,194.282883 307.787903,195.181061 
	C306.905151,194.949539 305.948608,194.376190 304.884155,193.486511 
z"/>
<path fill="#D3F5FD" opacity="1.000000" stroke="none" 
	d="
M248.036285,326.359131 
	C248.429855,326.016815 248.874054,325.961761 249.651749,325.952454 
	C249.680298,326.511749 249.375351,327.025208 249.070404,327.538696 
	C248.742569,327.241272 248.414749,326.943817 248.036285,326.359131 
z"/>
<path fill="#ECFAFD" opacity="1.000000" stroke="none" 
	d="
M278.669312,382.108215 
	C278.805298,382.012756 278.907715,382.499481 278.858795,382.743286 
	C278.442200,382.800415 278.350037,382.539246 278.669312,382.108215 
z"/>
<path fill="#D3F5FD" opacity="1.000000" stroke="none" 
	d="
M272.088165,324.255737 
	C272.147125,324.063873 272.313293,324.020599 272.736664,323.990234 
	C272.727661,324.136902 272.461517,324.270660 272.088165,324.255737 
z"/>
<path fill="#6DB0D8" opacity="1.000000" stroke="none" 
	d="
M223.864075,306.872192 
	C223.783432,307.002625 223.600418,307.002563 223.144989,306.963135 
	C223.125534,306.642731 223.421906,306.582062 223.864075,306.872192 
z"/>
<path fill="#8A96A6" opacity="1.000000" stroke="none" 
	d="
M313.331604,193.819763 
	C313.288940,193.900177 313.167236,193.678116 313.135254,193.629639 
	C313.103302,193.581161 313.374268,193.739334 313.331604,193.819763 
z"/>
<path fill="#ECFAFD" opacity="1.000000" stroke="none" 
	d="
M292.130310,369.323792 
	C292.316406,369.230408 292.630371,369.337036 293.019287,369.692749 
	C292.762878,369.907684 292.484192,369.768341 292.130310,369.323792 
z"/>
<path fill="#82B4D1" opacity="1.000000" stroke="none" 
	d="
M144.069885,260.256073 
	C144.296295,260.216644 144.544159,260.448822 144.860031,260.930939 
	C144.649139,260.963165 144.370224,260.745392 144.069885,260.256073 
z"/>
<path fill="#ECFAFD" opacity="1.000000" stroke="none" 
	d="
M347.261536,276.897308 
	C347.201843,276.726868 347.361755,276.441467 347.750580,276.050537 
	C347.920563,276.287964 347.754425,276.567047 347.261536,276.897308 
z"/>
<path fill="#D3F5FD" opacity="1.000000" stroke="none" 
	d="
M297.982574,309.963989 
	C290.802887,312.716705 283.623199,315.469421 275.712860,318.483459 
	C271.306366,319.462128 267.630554,320.179504 263.954712,320.896851 
	C261.976929,320.969818 259.999176,321.042755 257.202087,321.069092 
	C254.929428,320.726715 253.476120,320.430969 252.430771,320.082581 
	C255.706909,319.410065 258.575073,318.790222 261.443237,318.170380 
	C261.793152,318.185883 262.143036,318.201416 263.152618,318.152161 
	C266.317474,317.439117 268.822693,316.790894 271.327881,316.142700 
	C271.712250,316.105988 272.096649,316.069275 273.080872,315.965057 
	C274.451691,315.596680 275.222656,315.295807 275.993622,314.994934 
	C276.166534,314.986908 276.339447,314.978882 277.059052,314.934174 
	C278.090179,314.616211 278.574646,314.334930 279.059113,314.053650 
	C279.059113,314.053650 279.002899,314.005280 279.383362,314.028870 
	C281.516449,313.375610 283.269073,312.698792 285.021698,312.021973 
	C285.021698,312.021942 284.998779,312.004822 285.401123,312.014893 
	C289.162781,310.895721 292.522095,309.766510 295.881378,308.637299 
	C296.058594,308.647949 296.235779,308.658569 296.932007,308.773987 
	C297.632874,308.922821 297.814697,308.966919 298.005371,309.249481 
	C298.014191,309.487915 297.982574,309.964020 297.982574,309.963989 
z"/>
<path fill="#D3F5FD" opacity="1.000000" stroke="none" 
	d="
M347.038849,262.033936 
	C350.310760,261.520172 348.952057,263.541687 348.210480,264.531769 
	C344.542389,269.429138 340.771820,274.253479 336.907562,278.997803 
	C335.879700,280.259827 334.393066,281.148163 332.613098,282.143555 
	C332.109131,282.079041 331.751373,281.731659 331.751373,281.731659 
	C332.134796,281.024536 332.518219,280.317413 333.031372,279.334717 
	C337.417511,274.013458 341.673950,268.967743 346.246399,263.450623 
	C346.724854,262.661011 346.887299,262.342804 347.049744,262.024597 
	C347.049744,262.024597 347.025940,262.019714 347.038849,262.033936 
z"/>
<path fill="#BFEEFC" opacity="1.000000" stroke="none" 
	d="
M252.022797,320.135254 
	C253.476120,320.430969 254.929428,320.726715 256.778748,321.060333 
	C250.905426,321.667816 244.640060,322.295380 238.360901,322.718475 
	C237.723602,322.761414 237.003342,321.573242 236.507935,320.596313 
	C236.694290,320.236267 237.046951,320.187378 237.046951,320.187378 
	C237.475800,320.211273 237.904633,320.235107 238.997452,320.253448 
	C240.119232,320.238617 240.577042,320.229309 241.236435,320.251099 
	C241.438019,320.282166 241.840546,320.348236 242.172485,320.527740 
	C245.677200,320.516602 248.850006,320.325928 252.022797,320.135254 
z"/>
<path fill="#82B4D1" opacity="1.000000" stroke="none" 
	d="
M324.648407,297.965515 
	C325.015900,298.106781 325.028351,298.282379 325.009705,298.720093 
	C322.060577,301.068726 319.142487,303.155243 316.010559,305.492859 
	C314.087189,306.411835 312.377686,307.079651 310.331482,307.823059 
	C312.416107,305.629364 314.837433,303.360107 317.604553,301.057861 
	C320.064667,300.016510 322.179016,299.008148 324.648407,297.965515 
z"/>
<path fill="#63AEDB" opacity="1.000000" stroke="none" 
	d="
M252.430771,320.082581 
	C248.850006,320.325928 245.677200,320.516602 242.222839,320.199890 
	C241.956833,319.473907 241.972397,319.255280 241.987961,319.036621 
	C248.178726,318.716492 254.369507,318.396362 261.001770,318.123291 
	C258.575073,318.790222 255.706909,319.410065 252.430771,320.082581 
z"/>
<path fill="#63AEDB" opacity="1.000000" stroke="none" 
	d="
M322.841003,295.087769 
	C321.982208,296.482178 320.821442,297.642792 319.365967,298.942505 
	C318.909973,298.797058 318.689026,298.530426 318.597015,298.224945 
	C318.046570,296.397064 316.518097,293.570984 317.174347,292.902557 
	C319.644501,290.386536 320.951996,293.464752 322.841003,295.087769 
z"/>
<path fill="#63AEDB" opacity="1.000000" stroke="none" 
	d="
M224.035675,323.552032 
	C222.726471,323.128754 221.456192,322.379150 220.329437,321.131714 
	C220.647842,319.757172 220.822708,318.880402 220.997559,318.003662 
	C222.203003,317.842712 223.408463,317.681763 224.799255,317.767151 
	C224.681274,319.750916 224.377945,321.488312 224.035675,323.552032 
z"/>
<path fill="#63AEDB" opacity="1.000000" stroke="none" 
	d="
M295.600861,308.439026 
	C292.522095,309.766510 289.162781,310.895721 285.412140,312.027252 
	C288.453979,310.766632 291.887146,309.503662 295.600861,308.439026 
z"/>
<path fill="#63AEDB" opacity="1.000000" stroke="none" 
	d="
M236.805786,319.868439 
	C237.046951,320.187378 236.694290,320.236267 236.519180,320.230774 
	C233.279327,320.066681 230.214600,319.908142 227.074646,319.377228 
	C230.187820,319.186432 233.376236,319.367981 236.805786,319.868439 
z"/>
<path fill="#63AEDB" opacity="1.000000" stroke="none" 
	d="
M298.155579,310.244812 
	C297.982574,309.964020 298.014191,309.487915 298.236664,309.081024 
	C297.985870,308.126282 297.512634,307.578430 297.039368,307.030579 
	C298.119324,306.689453 299.199249,306.348328 300.645569,306.371674 
	C301.338135,308.118500 301.664337,309.500854 301.990540,310.883209 
	C301.342224,310.977814 300.693878,311.072418 299.726776,311.226074 
	C299.048187,311.031952 298.688416,310.778778 298.155579,310.244812 
z"/>
<path fill="#63AEDB" opacity="1.000000" stroke="none" 
	d="
M329.055725,291.162048 
	C327.615631,292.552704 325.765106,293.881989 323.569092,295.195496 
	C323.279602,291.492340 326.021118,291.374481 329.055725,291.162048 
z"/>
<path fill="#74AFD1" opacity="1.000000" stroke="none" 
	d="
M302.333252,310.914856 
	C301.664337,309.500854 301.338135,308.118500 301.011475,306.375366 
	C301.010986,306.014587 301.000977,306.001038 301.224518,305.896362 
	C301.718933,305.591644 301.906158,305.331451 302.009735,305.011078 
	C302.852234,306.438019 303.694733,307.864929 304.735809,309.545898 
	C304.181610,310.182129 303.428802,310.564301 302.333252,310.914856 
z"/>
<path fill="#63AEDB" opacity="1.000000" stroke="none" 
	d="
M270.865295,316.096802 
	C268.822693,316.790894 266.317474,317.439117 263.407776,318.079803 
	C264.572113,314.112610 267.959259,316.809082 270.865295,316.096802 
z"/>
<path fill="#69B0DC" opacity="1.000000" stroke="none" 
	d="
M220.668427,317.998108 
	C220.822708,318.880402 220.647842,319.757172 220.196869,320.836212 
	C219.443542,320.718750 218.966339,320.398956 218.242096,319.927917 
	C218.181488,319.269684 218.367935,318.762726 218.789200,318.103394 
	C219.462448,317.964844 219.900864,317.978699 220.668427,317.998108 
z"/>
<path fill="#63AEDB" opacity="1.000000" stroke="none" 
	d="
M284.686340,312.007294 
	C283.269073,312.698792 281.516449,313.375610 279.395782,314.063782 
	C280.802185,313.380951 282.576599,312.686768 284.686340,312.007294 
z"/>
<path fill="#63AEDB" opacity="1.000000" stroke="none" 
	d="
M174.983643,293.690369 
	C174.073105,293.556030 173.168686,293.084351 172.114105,292.330627 
	C172.760834,291.585663 173.557724,291.122803 174.727493,290.443359 
	C174.833298,291.617371 174.911514,292.485199 174.983643,293.690369 
z"/>
<path fill="#74AFD1" opacity="1.000000" stroke="none" 
	d="
M297.018982,307.298096 
	C297.512634,307.578430 297.985870,308.126282 298.227844,308.842590 
	C297.814697,308.966919 297.632874,308.922821 297.197693,308.756287 
	C296.962433,308.277740 296.980499,307.921661 297.018982,307.298096 
z"/>
<path fill="#63AEDB" opacity="1.000000" stroke="none" 
	d="
M275.666656,314.989105 
	C275.222656,315.295807 274.451691,315.596680 273.354980,315.867645 
	C273.799408,315.552917 274.569550,315.268097 275.666656,314.989105 
z"/>
<path fill="#63AEDB" opacity="1.000000" stroke="none" 
	d="
M241.034851,320.220001 
	C240.577042,320.229309 240.119232,320.238617 239.318146,320.218628 
	C239.443390,319.817688 239.911911,319.446075 240.697388,319.351685 
	C241.021179,319.825928 241.028015,320.022949 241.034851,320.220001 
z"/>
<path fill="#63AEDB" opacity="1.000000" stroke="none" 
	d="
M176.242050,289.109741 
	C176.679108,289.015839 177.229477,289.210999 177.919067,289.674438 
	C177.490646,289.761444 176.923004,289.580109 176.242050,289.109741 
z"/>
<path fill="#63AEDB" opacity="1.000000" stroke="none" 
	d="
M181.171249,292.086151 
	C181.580902,292.042938 182.109283,292.282959 182.788727,292.774109 
	C182.389847,292.806610 181.839905,292.587982 181.171249,292.086151 
z"/>
<path fill="#63AEDB" opacity="1.000000" stroke="none" 
	d="
M278.767029,314.045959 
	C278.574646,314.334930 278.090179,314.616211 277.311066,314.871704 
	C277.502563,314.576660 277.988739,314.307465 278.767029,314.045959 
z"/>
<path fill="#63AEDB" opacity="1.000000" stroke="none" 
	d="
M175.186218,288.120300 
	C175.414352,288.029266 175.719070,288.186493 176.080597,288.603760 
	C175.845856,288.698700 175.554321,288.533661 175.186218,288.120300 
z"/>
<path fill="#69B0DC" opacity="1.000000" stroke="none" 
	d="
M241.236435,320.251099 
	C241.028015,320.022949 241.021179,319.825928 241.012970,319.333679 
	C241.011597,319.038422 241.499908,319.025635 241.743927,319.031128 
	C241.972397,319.255280 241.956833,319.473907 241.890915,320.020386 
	C241.840546,320.348236 241.438019,320.282166 241.236435,320.251099 
z"/>
<path fill="#63AEDB" opacity="1.000000" stroke="none" 
	d="
M301.788422,305.115295 
	C301.906158,305.331451 301.718933,305.591644 301.229492,305.899048 
	C301.105438,305.679901 301.290833,305.417572 301.788422,305.115295 
z"/>
<path fill="#6DB0D8" opacity="1.000000" stroke="none" 
	d="
M346.801392,262.153137 
	C346.887299,262.342804 346.724854,262.661011 346.334137,263.129883 
	C346.254913,262.947571 346.403992,262.614624 346.801392,262.153137 
z"/>
<path fill="#63AEDB" opacity="1.000000" stroke="none" 
	d="
M183.098053,293.265198 
	C183.340073,293.088928 183.627792,293.239746 183.909332,293.752991 
	C183.656113,293.903473 183.402969,293.729126 183.098053,293.265198 
z"/>
<path fill="#63AEDB" opacity="1.000000" stroke="none" 
	d="
M178.173828,290.197815 
	C178.365128,290.104675 178.694473,290.272461 179.209351,290.655640 
	C179.033890,290.733612 178.672897,290.596191 178.173828,290.197815 
z"/>
<path fill="#FEFFFF" opacity="1.000000" stroke="none" 
	d="
M327.447693,387.535309 
	C327.413086,387.478363 327.482300,387.592255 327.447693,387.535309 
z"/>
<path fill="#FEFFFF" opacity="1.000000" stroke="none" 
	d="
M325.552185,387.468445 
	C325.586853,387.525635 325.517487,387.411285 325.552185,387.468445 
z"/>
<path fill="#ECFAFD" opacity="1.000000" stroke="none" 
	d="
M195.698151,370.598999 
	C195.886871,373.323639 195.834671,375.639069 195.986588,377.941040 
	C196.271774,382.262604 193.166763,383.374969 190.017746,383.711090 
	C186.466125,384.090271 185.291611,381.501465 185.033585,378.329224 
	C184.301285,369.326721 187.531235,366.804504 195.698151,370.598999 
z"/>
<path fill="#ECFAFD" opacity="1.000000" stroke="none" 
	d="
M263.091858,377.012878 
	C264.836304,377.071808 266.144836,377.131439 267.662689,377.200623 
	C268.972229,382.229797 265.277435,383.063019 262.190002,383.530029 
	C260.986359,383.712067 258.526489,381.865845 258.235931,380.582031 
	C257.487549,377.275391 260.125122,376.945038 263.091858,377.012878 
z"/>
<path fill="#ECFAFD" opacity="1.000000" stroke="none" 
	d="
M338.660278,376.990631 
	C339.602386,378.260773 340.116638,379.512665 340.630890,380.764526 
	C338.076416,381.672607 335.556488,382.738617 332.929108,383.313507 
	C332.547882,383.396912 330.832825,380.726654 331.171875,380.035339 
	C331.798645,378.757507 333.377472,377.761261 334.775177,377.110626 
	C335.740021,376.661530 337.067200,376.990875 338.660278,376.990631 
z"/>
<path fill="#55AEE4" opacity="1.000000" stroke="none" 
	d="
M209.968689,376.342407 
	C210.067429,379.283752 210.198425,381.823151 210.329514,384.362549 
	C207.714172,382.672577 207.109512,377.664673 209.635559,368.762573 
	C209.757370,371.155212 209.879166,373.547852 209.968689,376.342407 
z"/>
<path fill="#D3F5FD" opacity="1.000000" stroke="none" 
	d="
M332.291504,282.249054 
	C331.824707,282.819672 331.175507,283.220276 330.526337,283.620880 
	C330.736511,283.054657 330.946686,282.488464 331.454102,281.826965 
	C331.751373,281.731659 332.109131,282.079041 332.291504,282.249054 
z"/>
<path fill="#55AEE4" opacity="1.000000" stroke="none" 
	d="
M305.984375,364.932312 
	C305.983490,362.884125 305.983490,361.272217 305.983490,359.660309 
	C306.427887,359.659393 306.872253,359.658478 307.316650,359.657562 
	C307.316650,367.868958 307.316650,376.080322 307.316650,384.291718 
	C306.872833,384.309631 306.429047,384.327545 305.985229,384.345459 
	C305.985229,378.019867 305.985229,371.694244 305.984375,364.932312 
z"/>
<path fill="#6DB0D8" opacity="1.000000" stroke="none" 
	d="
M264.113342,321.162109 
	C267.630554,320.179504 271.306366,319.462128 275.388550,318.654053 
	C276.542084,319.525787 277.289246,320.488190 278.170990,321.624023 
	C277.265839,321.624023 276.312714,321.624023 275.173035,321.818970 
	C273.154846,322.163300 271.323273,322.312653 269.237915,322.758087 
	C268.248566,323.073181 267.513031,323.092224 266.410767,323.105957 
	C265.453339,322.542877 264.862640,321.985138 264.113342,321.162109 
z"/>
<path fill="#D3F5FD" opacity="1.000000" stroke="none" 
	d="
M165.207108,277.371887 
	C166.819275,278.484100 168.483246,279.910980 170.065613,281.683136 
	C168.408981,280.581116 166.833939,279.133820 165.207108,277.371887 
z"/>
<path fill="#69B0DC" opacity="1.000000" stroke="none" 
	d="
M158.932419,276.665802 
	C158.051941,275.889465 157.157730,274.764587 156.126831,273.326050 
	C156.966309,274.114044 157.942505,275.215637 158.932419,276.665802 
z"/>
<path fill="#55AEE4" opacity="1.000000" stroke="none" 
	d="
M181.447998,299.535400 
	C181.412872,299.477692 181.483109,299.593109 181.447998,299.535400 
z"/>
<path fill="#FEFFFF" opacity="1.000000" stroke="none" 
	d="
M310.689758,381.471130 
	C311.448273,381.465027 311.986938,381.672089 312.525574,381.879120 
	C312.390381,382.155548 312.255188,382.431976 312.119995,382.708435 
	C311.569977,382.367035 311.019928,382.025665 310.689758,381.471130 
z"/>
</svg>